<svg width="1187" height="440" viewBox="0 0 1187 440" fill="none" xmlns="http://www.w3.org/2000/svg">
<path d="M129.987 105.839H125.328C125.328 100.48 104.617 79.7694 99.2583 79.7694V75.1099C104.617 75.1099 125.328 54.3989 125.328 49.0405H129.987C129.987 54.3989 150.698 75.1099 156.057 75.1099V79.7694C150.698 79.7694 129.987 100.48 129.987 105.839ZM105.234 77.4397C112.701 82.0175 123.08 92.3847 127.658 99.8631C132.235 92.3964 142.603 82.0175 150.081 77.4397C142.614 72.8618 132.235 62.4946 127.658 55.0162C123.08 62.4829 112.713 72.8618 105.234 77.4397Z" fill="#D94426"/>
<path d="M318.904 289.897C313.907 289.897 309.841 293.963 309.841 298.96V324.785C309.841 329.782 313.907 333.847 318.904 333.847C320.034 333.847 321.105 333.626 322.107 333.253L315.2 326.345L322.608 318.937L327.966 324.295V298.971C327.966 293.974 323.901 289.909 318.904 289.909V289.897Z" fill="#D94426"/>
<path d="M374.653 0.0116599H62.7754C53.9691 0.0116599 46.8169 7.17552 46.8169 15.9702V216.674C45.3143 215.894 43.6953 215.37 42.0062 215.148C34.3182 214.135 26.9447 219.377 24.2422 227.216C21.9708 226.016 18.8953 225.015 15.3076 225.353C7.3866 226.11 0.688865 233.215 0.0481957 241.509C-0.441043 247.951 2.91373 252.773 4.70761 254.858C4.50958 262.278 4.7193 269.629 5.33667 276.711C5.80262 281.999 6.47819 286.624 10.2407 289.641C12.2093 291.225 14.6671 292.064 17.5443 292.157V344.995C17.5443 356.212 26.4205 365.345 37.3352 365.345H46.7936V424.042C46.7936 432.848 53.9574 440 62.752 440H374.63C383.436 440 390.589 432.836 390.589 424.042V15.9585C390.589 7.15221 383.424 0 374.63 0L374.653 0.0116599ZM17.5676 287.497C15.7854 287.416 14.306 286.927 13.1761 286.018C10.8464 284.143 10.3805 280.811 9.99609 276.315C9.36707 269.116 9.16904 261.626 9.41366 254.066L9.44836 253.076L8.76127 252.365C7.71291 251.282 4.29992 247.322 4.71927 241.87C5.17356 235.859 10.1358 230.536 15.7737 229.989C19.6527 229.616 22.7745 231.573 24.2772 232.761L27.4106 235.242L28.028 231.293C29.1346 224.234 35.285 218.946 41.4238 219.75C46.0716 220.355 50.0554 224.339 51.3484 229.662L52.0005 232.342L54.5401 231.247C56.264 230.501 58.8964 229.779 61.5989 230.536C65.6642 231.689 68.8793 235.883 70.1723 241.241C70.5683 242.872 70.7897 244.619 70.7897 246.413V248.801L73.1777 248.743C76.3694 248.661 80.12 248.58 84.3368 248.521C84.9775 248.521 85.5482 248.498 86.0724 248.486C85.292 249.069 84.3717 249.663 83.4049 250.187C79.06 252.517 73.4922 253.041 67.2951 251.69L66.5961 254.916C64.4528 260.368 59.4788 264.061 53.7361 264.282C47.3876 264.538 41.5285 260.31 39.49 254.031L37.4981 247.927L35.1101 253.891C33.7006 257.398 30.5207 259.576 27.3873 259.157C24.3353 258.772 22.5762 256.011 22.2501 255.464V255.371H17.5907V287.474L17.5676 287.497ZM119.9 124.837C119.084 118.605 117.908 114.866 116.871 111.581C115.846 108.331 115.043 105.769 114.821 101.575C114.623 97.7778 114.984 93.9455 115.893 90.1247C115.998 89.9733 116.102 89.8219 116.207 89.6704C115.019 88.5289 114.064 87.0961 113.388 85.4886C113.144 85.3837 112.922 85.2556 112.678 85.1391C112.538 85.3255 112.41 85.4886 112.27 85.675C110.593 91.0333 109.871 96.4499 110.162 101.808C110.418 106.596 111.385 109.683 112.422 112.968C113.4 116.078 114.507 119.607 115.275 125.431C116.289 133.119 117.011 138.676 114.017 143.824C113.074 145.455 111.956 146.888 105.409 151.804C99.3635 156.335 95.0884 159.037 91.6521 161.192C89.3807 162.625 87.4239 163.848 85.4203 165.304C80.5046 168.857 76.0313 173.237 72.0475 178.351V126.864C77.6155 125.14 82.0771 122.321 85.3037 118.431C92.188 110.137 90.8135 100.107 89.3691 89.484C87.9596 79.1634 86.3638 67.4683 91.8037 54.8763C93.9121 49.9839 98.9791 40.8165 109.148 34.3516C116.999 29.3544 125.107 27.7119 131.607 27.3974H196.116C196.023 36.7628 193.717 43.682 189.244 47.9571C183.862 53.1057 176.908 53.2688 168.113 53.4901C158.352 53.7347 147.32 54.0259 135.369 61.2713C135.253 61.0849 135.043 60.8403 134.728 60.6889C134.402 60.5258 133.983 60.4908 133.436 60.6422C133.459 60.6422 133.47 60.6539 133.494 60.6656C133.494 60.6656 133.494 60.6656 133.505 60.6656C134.74 61.2014 135.952 61.7722 137.116 62.4711C137.978 62.9836 138.724 63.6243 139.376 64.3349C149.697 58.6271 159.505 58.3708 168.23 58.1495C177.257 57.9282 185.772 57.7068 192.47 51.3234C197.898 46.1398 200.682 38.0907 200.775 27.3974H251.552L247.591 28.0148C248.174 31.7772 248.849 41.4572 242.419 50.0771C238.773 54.9695 234.195 57.6486 230.992 59.0464L231.283 59.722C214.102 55.4121 200.345 57.6602 190.397 66.4665C184.619 71.5802 180.6 78.4762 177.84 86.1292C172.132 88.3308 160.378 94.2483 152.737 107.493C145.771 119.584 145.736 131.384 146.563 138.093C126.248 154.227 118.059 166.364 121.053 175.508C122.136 178.828 124.606 181.461 127.972 183.558C124.874 185.165 121.554 187.588 118.77 191.222C114.611 192.154 106.096 194.985 99.7594 203.302C93.9585 210.908 93.0267 218.992 93.1315 223.99C92.6539 224.281 92.1763 224.595 91.6988 224.922C87.2141 227.985 83.4865 231.922 80.5744 236.617H73.5386C73.096 235.545 72.5953 234.52 72.0245 233.565V186.4C76.5907 179.329 82.0071 173.505 88.1226 169.078C90.0096 167.716 91.9085 166.516 94.1101 165.13C97.6163 162.916 101.984 160.167 108.181 155.52C114.856 150.522 116.615 148.589 118.025 146.154C121.822 139.631 120.913 132.758 119.876 124.814L119.9 124.837ZM252.192 27.4207H307.674C307.092 33.3498 306.009 39.1158 304.378 44.579C302.91 49.483 301.046 54.0492 298.833 58.2427C291.296 50.9507 282.583 45.2429 272.915 43.4723C264.994 42.0279 257.131 43.3792 249.385 47.4445C253.299 39.1391 252.74 31.0317 252.181 27.409L252.192 27.4207ZM273.625 261.242C270.317 260.764 265.891 259.494 261.651 256.314C259.601 254.777 252.821 249.011 251.563 239.249C251.144 236.011 251.004 229.663 254.755 223.5C260.253 214.45 270.073 212.493 271.983 212.19C274.814 211.747 277.458 211.875 279.893 212.306C280.556 213.506 281.325 214.694 282.246 215.836C286.952 221.683 293.218 223.99 296.503 224.933C293.987 225.842 283.142 230.059 277.132 241.87C273.101 249.791 273.194 257.281 273.614 261.242H273.625ZM208.86 327.627L210.188 333.311L204.852 330.958C192.563 325.53 178.527 327.58 169.93 336.049C162.056 343.806 161.415 354.022 161.508 358.053L161.578 361.407L158.247 361C148.8 359.858 141.24 361.64 135.789 366.323C126.808 374.034 126.306 387.057 126.306 387.197L126.19 390.727L122.742 389.946C120.436 389.422 99.7711 385.205 85.1871 398.822C79.5376 404.088 76.6373 410.32 75.1462 415.026C73.2941 413.966 72.0362 412.009 72.0362 409.725V403.33C74.3542 396.854 79.1532 388.152 88.9962 382.503C102.439 374.803 115.834 378.205 118.467 378.927C118.432 376.061 118.7 368.14 124.14 360.475C125.491 358.565 129.335 353.626 136.068 350.504C136.476 350.318 136.883 350.143 137.291 349.98C139.038 350.679 141.042 351.203 143.174 351.203C143.884 351.203 144.618 351.145 145.364 351.017C146.633 350.796 149.266 350.353 151.712 348.454C151.91 348.303 152.096 348.151 152.271 348.012C152.527 347.883 152.679 347.779 152.667 347.72C152.667 347.72 152.656 347.72 152.644 347.709C155.894 345.053 155.766 344.272 155.626 343.445L154.065 341.628C152.923 341.255 152.096 341.838 151.7 342.187C151.7 342.187 151.677 342.211 151.665 342.222C151.619 342.269 151.572 342.304 151.537 342.339C151.002 342.851 149.464 344.296 148.858 344.773C147.332 345.961 145.608 346.253 144.571 346.427C141.193 347.01 137.839 345.274 135.882 343.981C137.466 341.267 137.641 337.854 136.383 333.789C138.235 332.472 140.529 330.282 141.985 326.835C143.639 322.932 143.407 319.321 142.999 317.131C143.092 316.91 143.15 316.677 143.22 316.456C146.983 321.628 153.622 327.079 165.271 331.471L166.913 327.114C139.633 316.817 143.29 301.056 143.465 300.392H143.441C143.663 300.194 143.872 299.985 144.071 299.752C146.377 297.119 146.051 293.357 145.655 291.365C144.513 285.552 138.444 282.151 132.014 279.437C128.007 275.604 120.855 267.264 121.076 256.536C121.204 250.187 122.649 247.333 123.523 247.03C125.072 246.506 130.465 250.607 138.316 263.898L138.584 264.259C141.042 267.031 143.768 269.535 146.68 271.725C148.206 272.867 149.802 273.939 151.444 274.917C168.416 286.81 172.015 299.123 172.05 299.239C175.615 305.378 179.179 311.517 182.744 317.667C184.724 317.073 187.368 316.502 190.513 316.374C194.369 316.223 197.584 316.817 199.832 317.411C199.122 314.802 195.313 299.903 204.189 286.111C209.116 278.47 215.721 274.591 219.18 272.89C221.091 273.461 223.083 274.102 225.144 274.847C226.379 275.301 227.579 275.756 228.732 276.222C226.728 277.503 224.818 278.901 223.024 280.45C221.533 281.743 216.385 286.449 212.762 292.693C205.004 306.1 207.439 321.604 208.848 327.65L208.86 327.627ZM92.8753 245.551C92.1065 243.734 90.7203 243.757 87.3539 243.839C86.5385 243.85 85.5252 243.874 84.2555 243.897C80.9822 243.944 77.9884 244.002 75.3209 244.072C75.2393 243.117 75.0997 242.196 74.925 241.288H91.4892C93.5044 241.288 95.1467 243.012 95.1467 245.143V272.261C90.9066 274.335 78.3261 279.53 58.3838 279.53H58.2792C39.2455 279.518 26.9447 274.766 22.2154 272.541V262.092C23.4501 262.907 24.9643 263.583 26.7699 263.804C30.5673 264.294 34.3297 262.674 36.9507 259.681C40.4103 265.365 46.5606 268.988 53.2003 268.988C53.4333 268.988 53.6547 268.988 53.8877 268.976C61.3893 268.697 67.9125 263.956 70.778 256.967C76.3111 257.468 81.3665 256.594 85.5716 254.334C87.0626 253.53 94.4362 249.337 92.852 245.551H92.8753ZM129.673 303.328H129.696C131.141 303.328 132.585 303.246 134.041 303.118L134.624 303.619C135.497 304.353 139.807 308.278 139.26 313.182C139.213 313.625 139.12 314.056 139.004 314.487C135.637 315.221 132.212 315.617 128.799 315.617H128.788C122.113 315.617 115.532 314.219 109.242 311.447L107.366 315.71C114.25 318.739 121.461 320.265 128.788 320.265H128.799C132.073 320.265 135.369 319.927 138.607 319.31C138.736 320.847 138.607 322.862 137.71 324.994C136.394 328.093 134.111 329.77 132.876 330.504C128.648 330.97 124.373 330.97 120.168 330.469C116.149 329.991 112.177 329.071 108.345 327.743L106.807 332.146C110.954 333.591 115.264 334.581 119.609 335.105C121.973 335.385 124.35 335.524 126.726 335.524C128.473 335.524 130.232 335.419 131.968 335.268C132.865 338.215 132.748 340.51 131.583 342.071C129.195 345.297 122.707 345.519 120.482 345.344C113.738 344.599 108.298 342.28 104.326 338.46C102.183 336.398 100.726 333.789 99.8061 330.515C99.3401 329.106 98.8742 327.347 98.6296 325.262C98.3384 322.816 98.4316 320.684 98.6296 319.042C99.2702 306.147 99.9809 295.593 100.505 288.045C100.657 285.925 101.122 282.908 103.219 280.939C105.292 278.994 108.146 278.843 111.955 278.843H112.002C115.974 278.843 120.634 279.891 125.876 281.953C127.052 282.419 128.263 282.896 129.452 283.385C129.603 283.525 129.766 283.677 129.918 283.816L130.069 283.642C135.427 285.89 140.355 288.534 141.077 292.227C141.461 294.149 141.252 295.849 140.553 296.653C140.308 296.933 139.889 297.212 139.167 297.667C136.033 298.307 132.841 298.645 129.673 298.645H129.65C122.975 298.645 116.394 297.247 110.103 294.475L108.228 298.738C115.112 301.767 122.323 303.293 129.65 303.293L129.673 303.328ZM112.002 274.195C108.263 274.195 103.615 274.195 100.027 277.55C99.9458 277.619 99.8876 277.701 99.8061 277.771V260.31C100.528 260.31 101.262 260.333 101.973 260.391C106.504 260.729 112.142 261.16 115.438 265.482C117.547 268.254 118.153 271.865 118.222 274.835C116.044 274.416 113.971 274.195 112.002 274.195ZM114.646 218.107C114.553 218.107 114.472 218.107 114.378 218.107C109.952 218.107 104.011 218.794 97.8609 221.509C98.1288 217.35 99.352 211.549 103.464 206.144C107.145 201.322 111.688 198.642 115.334 197.175C111.967 205.317 113.377 213.599 114.635 218.095L114.646 218.107ZM216.489 267.182C214.835 266.74 213.531 266.437 212.063 266.087C210.013 265.598 207.695 265.051 203.571 263.944C194.765 261.568 190.304 259.995 187.555 255.825C187.217 255.313 187.019 254.975 186.832 254.579C185.574 251.981 185.108 247.252 184.899 235.137C184.899 234.485 184.899 233.821 184.875 233.169C188.999 233.448 193.157 233.646 197.281 233.716C197.782 233.716 198.294 233.728 198.819 233.728C201.673 233.728 205.016 233.483 208.44 231.608C209.698 230.92 210.875 230.07 211.935 229.092L208.767 225.679C207.986 226.401 207.136 227.018 206.216 227.519C203.443 229.033 200.799 229.115 197.363 229.057C193.192 228.987 188.999 228.789 184.84 228.498C184.817 224.758 184.829 221.019 184.875 217.327C184.899 215.614 183.839 214.053 182.243 213.459C180.426 212.784 178.818 211.805 177.455 210.536C176.395 209.545 174.38 207.414 173.53 204.851C188.976 203.675 206.577 201.403 225.75 197.221C245.797 192.841 263.421 187.297 278.401 181.659C277.842 183.86 277.4 186.202 277.132 188.706C276.98 190.116 276.806 191.688 276.689 193.354C271.284 193.261 264.318 194.076 257.026 197.361C246.857 201.951 239.554 208.928 235.337 218.072C227.532 234.974 234.649 250.898 235.488 252.668C238.82 259.669 243.654 264.538 248.01 267.788C243.351 269.198 238.54 271.015 233.892 273.344C228.255 270.852 222.407 268.778 216.489 267.194V267.182ZM239.693 250.653C238.948 249.092 232.658 234.986 239.565 220.017C243.304 211.91 249.828 205.713 258.948 201.601C265.46 198.666 271.68 197.932 276.538 198.002C276.561 201.007 276.899 204.175 277.831 207.321C275.757 207.169 273.567 207.239 271.272 207.6C268.081 208.101 257.19 210.547 250.783 221.089C246.298 228.474 246.461 236.023 246.95 239.855C248.395 251.107 255.757 257.724 258.855 260.042C261.138 261.754 263.468 263.001 265.693 263.898C262.222 264.398 258.203 265.132 253.94 266.169C249.467 263.466 243.479 258.621 239.705 250.665L239.693 250.653ZM296.422 378.344C301.664 378.344 319.777 360.231 319.777 355.001H320.942C320.942 360.242 339.055 378.344 344.297 378.344V379.509C339.055 379.509 320.942 397.623 320.942 402.864H319.777C319.777 397.623 301.664 379.509 296.422 379.509V378.344ZM343.528 343.352L339.405 347.464L337.856 349.013L329.818 340.976C326.696 343.084 322.934 344.319 318.892 344.319C308.117 344.319 299.345 335.548 299.345 324.773V298.948C299.345 288.173 308.117 279.402 318.892 279.402C329.667 279.402 338.438 288.173 338.438 298.948V324.773C338.438 327.696 337.774 330.457 336.621 332.95L345.276 341.605L343.528 343.352ZM266.625 171.024C205.26 190.547 131.397 192.143 125.479 174.087C123.313 167.483 129.848 153.679 172.307 125.303C172.423 138.501 174.019 148.624 174.182 149.625L174.438 151.186L175.976 151.524C187.508 154.087 198.667 155.182 209.337 155.182C239.915 155.182 266.333 146.224 284.948 137.371C312.124 124.465 328.548 109.438 329.236 108.797L330.412 107.702L329.806 106.211C329.375 105.14 324.332 92.7922 315.653 79.2916C367.944 77.719 381.538 85.2789 383.611 92.0001C389.214 110.149 327.977 151.501 266.613 171.012L266.625 171.024ZM156.768 109.846C162.359 100.154 170.373 94.8074 175.976 92.0467C173.518 101.133 172.551 110.847 172.342 119.677C164.234 125.024 157.094 130.033 150.932 134.715C150.571 128.448 151.351 119.246 156.768 109.846ZM177.036 123.183C177.106 104.977 180.135 81.7843 193.472 69.9727C202.756 61.7489 216.128 60.1065 233.193 65.0687L234.58 65.4764L235.558 64.4164C247.591 51.3351 259.88 45.8253 272.076 48.0619C289.037 51.1487 303.259 68.3769 312.753 83.5666C283.375 112.036 247.94 121.273 223.222 123.987C200.659 126.456 182.709 124.103 177.036 123.183ZM365.393 77.09C353.034 74.6788 335.572 73.9216 312.613 74.737C309.526 70.2873 306.055 65.8376 302.246 61.7256C304.913 56.9148 307.138 51.6147 308.851 45.9069C310.61 40.0127 311.786 33.8041 312.392 27.4207H359.289C362.667 27.4207 365.404 30.1697 365.404 33.5362V77.0784L365.393 77.09ZM37.3585 360.708C29.0181 360.708 22.227 353.673 22.227 345.018V277.631C28.3658 280.205 40.6666 284.166 58.2908 284.189H58.3955C76.672 284.189 89.2409 279.938 95.1583 277.375V295.535C93.7256 311.773 93.0732 323.049 95.1583 331.191V345.018C95.1583 353.673 88.3673 360.708 80.0269 360.708H37.3585ZM384.799 424.065C384.799 429.656 380.256 434.199 374.665 434.199H62.787C57.1957 434.199 52.6529 429.656 52.6529 424.065V365.368H67.3881V409.714C67.3881 415.655 72.2223 420.489 78.163 420.489H359.277C365.218 420.489 370.052 415.655 370.052 409.714V121.762C375.9 116.695 381.34 111.092 384.788 105.536V424.065H384.799ZM384.799 85.3255C381.759 82.2736 376.866 79.8856 370.064 78.1267V33.5362C370.064 27.5954 365.23 22.7613 359.289 22.7613H136.709C135.148 22.6914 133.424 22.6797 131.583 22.7613H78.1747C72.2339 22.7613 67.3998 27.5954 67.3998 33.5362V228.346C66.0136 227.321 64.4878 226.552 62.857 226.086C60.0031 225.283 57.3007 225.551 55.1108 226.145C54.4818 224.525 53.6546 223.034 52.6645 221.695V15.9702C52.6645 10.3789 57.2074 5.83593 62.7987 5.83593H374.676C380.268 5.83593 384.811 10.3789 384.811 15.9702V85.3255H384.799Z" fill="#D94426"/>
<path d="M84.9427 345.158L85.3505 344.564V289.862H80.6911V343.049C79.4098 344.482 77.2199 345.379 74.9018 345.379C72.5838 345.379 70.3939 344.482 69.1125 343.049V293.962H64.4531V343.049C63.1718 344.482 60.9816 345.379 58.6635 345.379C56.3455 345.379 54.1556 344.482 52.8743 343.049V293.962H47.5161V343.049C46.2348 344.482 44.0449 345.379 41.7268 345.379C39.4088 345.379 37.2186 344.482 35.9372 343.049V289.862H31.2778V344.564L31.6856 345.158C33.7474 348.163 37.5916 350.038 41.7268 350.038C44.9768 350.038 48.0287 348.874 50.1837 346.928C52.3503 348.874 55.4022 350.038 58.6405 350.038C61.7157 350.038 64.6162 349.002 66.7595 347.243C68.8912 349.002 71.8033 350.038 74.8785 350.038C79.0137 350.038 82.8576 348.163 84.9194 345.158H84.9427Z" fill="#D94426"/>
<path d="M1017.04 174.169C1018.17 174.74 1020.98 175.87 1024.39 174.973C1027.48 174.158 1029.34 172.084 1030.02 171.164L1051.63 136.626C1047.89 128.286 1038.56 123.813 1026.1 123.813C1009.74 123.813 999.167 131.641 999.167 145.526V162.987L1017.04 174.169Z" fill="#D94426"/>
<path d="M1040.82 185.188C1041.5 188.578 1043.65 190.651 1044.64 191.455L1053.44 196.953V159.631L1041.66 178.444C1041.05 179.702 1040.2 182.171 1040.81 185.188H1040.82Z" fill="#D94426"/>
<path d="M1037.22 202.987C1036.91 202.731 1034 200.494 1030.19 201.333C1026.32 202.183 1024.63 205.526 1024.46 205.911L1024.33 206.144L999.167 246.354V316.176H1022.25V231.537H1030.36V316.176H1053.45V213.144L1037.23 202.987H1037.22Z" fill="#D94426"/>
<path d="M1009.55 185.689L999.167 179.189V220.472L1012.62 198.968C1013.24 197.757 1014.13 195.381 1013.66 192.457C1013.05 188.741 1010.63 186.516 1009.53 185.677L1009.55 185.689Z" fill="#D94426"/>
<path d="M437.183 315.151V124.709H479.362L474.411 147.796H460.258V207.425H476.194V230.513H460.258V292.203H474.411L479.362 315.151H437.183Z" fill="#D94426"/>
<path d="M518.803 295.5V149.858C518.803 147.529 517.428 146.154 514.54 145.595C512.198 145.595 510.964 146.97 510.696 149.858V315.151H487.608V144.5C487.608 128.425 501.214 122.787 514.54 122.787C524.289 122.787 541.879 125.944 541.879 144.5V290.142C541.879 292.471 543.253 293.846 546.142 294.405C548.484 294.405 549.718 293.03 549.986 290.142V124.709H573.074V295.5C573.074 311.575 559.468 317.213 546.142 317.213C536.392 317.213 518.803 314.056 518.803 295.5Z" fill="#D94426"/>
<path d="M585.446 295.5V144.5C585.446 128.425 599.051 122.787 612.377 122.787C622.127 122.787 639.716 125.944 639.716 144.5V161.81L616.629 169.509V149.858C616.629 147.529 615.254 146.154 612.365 145.595C610.024 145.595 608.79 146.97 608.522 149.858V290.142C608.522 292.203 609.756 294.405 612.365 294.405C614.707 294.405 616.07 293.03 616.629 290.142V270.491L639.716 278.19V295.5C639.716 311.715 625.703 317.213 612.377 317.213C597.537 317.213 585.446 310.62 585.446 295.5Z" fill="#D94426"/>
<path d="M682.034 315.151L679.145 257.712C679.006 255.371 677.771 254.008 675.569 253.588H671.038V315.139H647.951V124.697H674.882C684.632 124.697 702.221 127.854 702.221 146.41V231.596C702.221 236.546 700.986 240.658 698.377 244.095C700.847 247.251 702.093 250.828 702.221 254.811L705.11 315.128H682.023L682.034 315.151ZM679.145 226.249V151.78C679.145 149.45 677.771 148.076 674.882 147.796H671.038V230.513H674.882C677.224 230.513 678.726 229.138 679.145 226.249Z" fill="#D94426"/>
<path d="M714.731 295.5V124.709H737.819V290.141C737.819 292.203 739.053 294.405 741.663 294.405C744.004 294.405 745.379 293.03 745.926 290.141V124.709H769.013V295.5C769.013 311.714 755 317.213 741.674 317.213C726.834 317.213 714.743 310.62 714.743 295.5H714.731Z" fill="#D94426"/>
<path d="M846.64 315.151V124.709H869.727V315.151H846.64Z" fill="#D94426"/>
<path d="M840.803 218.643C819.032 226.832 797.261 235.021 775.49 243.21C775.734 233.553 775.991 223.897 776.235 214.252C797.983 207.064 819.731 199.866 841.479 192.679C841.257 201.333 841.036 210 840.815 218.655L840.803 218.643Z" fill="#D94426"/>
<path d="M883.473 315.151V124.709H906.56V292.203H920.713L925.663 315.151H883.484H883.473Z" fill="#D94426"/>
<path d="M963.708 315.151V230.652H955.601V315.151H932.514V124.709H955.601V207.565H963.708V124.709H986.795V315.151H963.708Z" fill="#D94426"/>
<path d="M1065.8 315.151V124.709H1092.73C1102.48 124.709 1120.07 127.866 1120.07 146.422V293.17C1120.07 309.653 1106.19 315.151 1092.73 315.151H1065.8ZM1096.99 287.8V151.769C1096.99 149.439 1095.62 148.064 1092.73 147.785H1088.88V292.192H1092.73C1095.07 292.192 1096.57 290.677 1096.99 287.788V287.8Z" fill="#D94426"/>
<path d="M1163.63 315.151V230.513H1155.52V315.151H1132.44V144.5C1132.44 130.627 1143.01 122.787 1159.37 122.787C1175.72 122.787 1186.71 130.487 1186.71 144.5V315.151H1163.62H1163.63ZM1163.63 149.858C1163.63 147.529 1162.26 146.154 1159.37 145.595C1157.04 145.595 1155.79 146.97 1155.52 149.858V207.425H1163.63V149.858Z" fill="#D94426"/>
<path d="M835.273 126.026V147.797C825.896 194.193 816.518 240.577 807.141 286.973C816.04 287.09 824.94 287.206 833.851 287.334C834.329 295.535 834.795 303.724 835.273 311.924H779.406V288.045C789.703 241.299 800.012 194.554 810.31 147.808H779.406V126.037H835.273V126.026Z" fill="#D94426"/>
<path d="M751.588 366.94V337.329H760.29C762.887 337.329 764.961 337.947 766.522 339.193C768.071 340.439 768.851 342.082 768.851 344.132C768.851 345.763 768.385 347.207 767.465 348.454C766.545 349.7 765.275 350.585 763.656 351.11V351.191C765.671 351.424 767.279 352.181 768.479 353.474C769.679 354.767 770.284 356.41 770.284 358.402C770.284 360.953 769.364 363.014 767.535 364.587C765.706 366.159 763.365 366.952 760.511 366.952H751.588V366.94ZM755.42 340.684V349.956H758.903C760.756 349.956 762.2 349.502 763.248 348.605C764.297 347.708 764.821 346.462 764.821 344.866C764.821 342.07 762.957 340.684 759.241 340.684H755.42ZM755.42 353.276V363.597H760.01C762.014 363.597 763.551 363.131 764.646 362.211C765.73 361.29 766.277 359.997 766.277 358.355C766.277 354.965 763.982 353.276 759.381 353.276H755.42Z" fill="#D94426"/>
<path d="M822.901 366.94H818.673L815.656 358.833H803.332L800.49 366.94H796.261L807.537 337.33H811.625L822.901 366.94ZM814.468 355.49L809.994 343.177C809.855 342.781 809.704 342.094 809.541 341.116H809.447C809.307 342.013 809.144 342.7 808.969 343.177L804.531 355.49H814.468Z" fill="#D94426"/>
<path d="M872.278 366.94H867.77L862.854 358.717C861.875 357.074 860.979 355.956 860.163 355.362C859.348 354.768 858.369 354.476 857.239 354.476H854.49V366.94H850.669V337.33H859.697C862.574 337.33 864.834 338.029 866.465 339.415C868.096 340.801 868.911 342.746 868.911 345.239C868.911 349.339 866.721 352.007 862.341 353.23V353.323C863.157 353.673 863.856 354.162 864.45 354.791C865.044 355.42 865.813 356.515 866.756 358.064L872.301 366.929L872.278 366.94ZM854.49 340.685V351.145H858.999C860.746 351.145 862.167 350.632 863.25 349.619C864.345 348.594 864.881 347.266 864.881 345.6C864.881 344.063 864.38 342.851 863.39 341.989C862.4 341.127 860.955 340.685 859.057 340.685H854.49Z" fill="#D94426"/>
</svg>
