<svg width="635" height="639" viewBox="0 0 635 639" fill="none" xmlns="http://www.w3.org/2000/svg">
<path d="M120.531 371.918L125.919 388.769L97.457 397.877L92.2822 381.688L97.2386 380.101L100.475 390.228L107.183 388.086L104.174 378.681L109.123 377.1L112.131 386.505L119.017 384.298L115.566 373.51L120.522 371.923L120.531 371.918Z" fill="#D94426"/>
<path d="M113.439 318.977L113.858 325.485L95.368 339.337C94.41 340.058 93.6322 340.586 93.0294 340.913L93.0342 341.014C94.0503 340.833 95.6355 340.68 97.7799 340.536L114.74 339.465L115.123 345.49L85.3067 347.38L84.8666 340.446L102.848 327.093C104.045 326.202 104.805 325.662 105.121 325.466L105.116 325.366C104.407 325.54 103.036 325.688 101.009 325.816L84.0109 326.899L83.6273 320.874L113.444 318.985L113.439 318.977Z" fill="#D94426"/>
<path d="M118.615 268.965C119.255 271.297 119.251 274.189 118.594 277.624C117.746 282.051 115.754 285.3 112.605 287.39C109.465 289.474 105.686 290.1 101.277 289.264C96.6393 288.374 93.1274 286.199 90.7282 282.736C88.329 279.273 87.5748 275.251 88.4522 270.667C88.9983 267.796 89.8361 265.47 90.9465 263.677L96.9928 264.834C95.449 266.596 94.4357 268.732 93.9583 271.249C93.4121 274.12 93.8923 276.585 95.3903 278.65C96.8884 280.714 99.1227 282.035 102.074 282.6C104.959 283.149 107.425 282.783 109.499 281.487C111.565 280.195 112.869 278.156 113.401 275.374C113.9 272.762 113.728 270.256 112.874 267.873L118.615 268.965Z" fill="#D94426"/>
<path d="M138.472 220.746L135.403 227.402L126.382 228.411C124.515 228.613 123.245 228.904 122.571 229.265C121.896 229.625 121.407 230.136 121.117 230.764L120.315 232.516L130.833 237.359L128.167 243.144L101.026 230.645L105.407 221.127C108.38 214.668 112.322 212.559 117.227 214.827C119.075 215.673 120.404 216.944 121.23 218.631C122.056 220.317 122.297 222.229 121.965 224.368L122.035 224.406C123.028 223.353 125.046 222.597 128.077 222.157L138.472 220.746ZM108.077 226.885L115.889 230.482L117.194 227.647C117.818 226.294 117.925 225.019 117.514 223.835C117.102 222.651 116.311 221.783 115.132 221.236C112.682 220.106 110.779 221.009 109.43 223.94L108.077 226.885Z" fill="#D94426"/>
<path d="M157.17 172.865C164.089 178.477 164.934 184.503 159.722 190.933C154.682 197.141 148.789 197.512 142.049 192.043L128.552 181.091L132.581 176.131L146.107 187.111C149.97 190.242 153.142 190.291 155.611 187.253C158.048 184.258 157.391 181.246 153.674 178.22L139.939 167.071L143.956 162.13L157.183 172.868L157.17 172.865Z" fill="#D94426"/>
<path d="M189.11 127.461L189.644 153.604L201.839 144.436L204.97 148.597L185.875 162.939L183.748 160.102L183.487 133.88L171.983 142.528L168.853 138.368L187.034 124.706L189.11 127.461Z" fill="#D94426"/>
<path d="M221.369 105.812L234.095 132.85L228.335 135.555L215.609 108.518L221.369 105.812Z" fill="#D94426"/>
<path d="M278.527 118.416L261.513 122.651L254.307 93.6541L260.481 92.1189L266.43 116.059L277.269 113.359L278.527 118.416Z" fill="#D94426"/>
<path d="M329.951 114.819L323.586 114.838L323.545 102.512L310.814 102.551L310.855 114.877L304.49 114.896L304.392 85.0168L310.757 84.9976L310.796 97.0599L323.526 97.0216L323.479 84.9643L329.844 84.9451L329.943 114.824L329.951 114.819Z" fill="#D94426"/>
<path d="M383.757 125.115L377.032 123.366L376.595 116.178L366.08 113.439L362.223 119.512L355.539 117.772L373.656 91.6155L380.903 93.5018L383.748 125.12L383.757 125.115ZM376.38 111.039L375.707 100.163C375.662 99.4776 375.727 98.5973 375.914 97.5256L375.747 97.4794C375.454 98.3059 375.067 99.075 374.606 99.7982L368.67 109.036L376.38 111.039Z" fill="#D94426"/>
<path d="M407.535 135.048L422.205 109.013L431.192 114.079C440.438 119.285 442.671 126.12 437.907 134.575C435.642 138.591 432.523 141.1 428.57 142.076C424.617 143.052 420.584 142.397 416.493 140.086L407.53 135.039L407.535 135.048ZM425.186 116.685L415.632 133.644L418.657 135.349C421.293 136.835 423.798 137.217 426.179 136.49C428.565 135.771 430.514 134.068 432.018 131.387C433.478 128.801 433.828 126.339 433.083 124.004C432.33 121.674 430.704 119.792 428.193 118.378L425.186 116.685Z" fill="#D94426"/>
<path d="M470.082 181.964L465.081 177.144L468.218 170.653L460.399 163.124L454.062 166.533L449.09 161.741L477.686 147.796L483.077 152.984L470.086 181.951L470.082 181.964ZM470.542 166.082L475.278 156.263C475.582 155.638 476.073 154.908 476.747 154.064L476.626 153.943C475.963 154.527 475.261 155.008 474.501 155.398L464.804 160.555L470.542 166.082Z" fill="#D94426"/>
<path d="M354.496 532.79C269.474 545.695 181.037 508.158 132.873 430.435M495.462 445.434C544.86 375.041 550.606 279.14 502.442 201.417" stroke="#D94426" stroke-width="3.91382" stroke-miterlimit="10"/>
<path d="M386.481 542.518L376.828 515.647L386.366 512.223C389.293 511.169 391.748 510.914 393.731 511.457C395.714 512.001 397.054 513.254 397.766 515.219C398.29 516.678 398.256 518.127 397.672 519.582C397.089 521.037 396.118 522.237 394.772 523.186L394.791 523.255C396.75 522.812 398.513 522.963 400.079 523.708C401.646 524.452 402.739 525.697 403.374 527.445C404.251 529.882 404.084 532.139 402.861 534.197C401.644 536.264 399.533 537.836 396.525 538.906L386.481 542.518ZM388.027 528.816L390.674 536.189L394.073 534.969C395.524 534.45 396.529 533.712 397.104 532.746C397.679 531.779 397.753 530.709 397.323 529.514C396.921 528.382 396.199 527.644 395.162 527.308C394.125 526.972 392.864 527.074 391.375 527.605L388.022 528.808L388.027 528.816ZM384.086 517.849L386.477 524.494L389.2 523.52C390.511 523.053 391.424 522.372 391.948 521.472C392.477 520.58 392.544 519.572 392.133 518.445C391.395 516.381 389.519 515.898 386.515 516.977L384.086 517.849Z" fill="#D94426"/>
<path d="M455.036 508.185L449.454 511.77L444.122 507.42L435.394 513.024L437.16 519.665L431.611 523.23L424.976 493.557L430.994 489.69L455.053 508.174L455.036 508.185ZM440.361 504.248L432.282 497.675C431.769 497.256 431.194 496.645 430.565 495.815L430.424 495.903C430.817 496.649 431.107 497.413 431.311 498.207L433.957 508.366L440.361 504.248Z" fill="#D94426"/>
<path d="M494.461 472.093L489.567 477.105L481.121 475.122C479.378 474.706 478.147 474.559 477.41 474.67C476.687 474.785 476.085 475.077 475.619 475.55L474.329 476.868L482.237 484.594L477.981 488.947L457.558 468.992L464.554 461.837C469.299 456.974 473.526 456.346 477.213 459.955C478.606 461.313 479.396 462.884 479.589 464.664C479.788 466.451 479.394 468.249 478.405 470.071L478.458 470.119C479.692 469.492 481.746 469.462 484.624 470.039L494.436 472.108L494.461 472.093ZM465.141 467.873L471.026 473.619L473.112 471.486C474.104 470.468 474.614 469.358 474.627 468.153C474.64 466.948 474.198 465.921 473.315 465.052C471.472 463.248 469.469 463.453 467.311 465.654L465.149 467.868L465.141 467.873Z" fill="#D94426"/>
<path d="M163.83 302.05H167.402C167.402 297.94 183.282 282.06 187.392 282.06V278.489C183.282 278.489 167.402 262.608 167.402 258.499H163.83C163.83 262.608 147.95 278.489 143.841 278.489V282.06C147.95 282.06 163.83 297.94 163.83 302.05ZM165.611 264.957C168.742 270.064 175.826 277.148 180.934 280.279C175.826 283.41 168.742 290.494 165.611 295.602C162.48 290.494 155.396 283.41 150.289 280.279C155.396 277.148 162.48 270.064 165.611 264.957Z" fill="#D94426"/>
<path d="M182.353 260.563V260.524L186.267 260.563C186.58 258.225 195.278 249.526 197.578 249.213L197.617 245.3C195.278 244.986 186.58 236.288 186.267 233.989L182.353 233.949C182.04 236.288 173.341 244.986 171.042 245.3L171.003 249.213C173.341 249.526 182.04 258.225 182.353 260.563ZM184.3 238.333C186.482 241.444 190.102 245.074 193.214 247.247C190.102 249.429 186.472 253.049 184.3 256.16C182.118 253.049 178.498 249.419 175.386 247.247C178.498 245.065 182.128 241.444 184.3 238.333Z" fill="#D94426"/>
<path d="M203.36 283.077C205.914 280.025 208.448 278.009 209.74 276.991C210.669 276.257 213.282 274.526 218.468 271.091C220.787 269.555 221.921 268.763 223.497 267.774C226.442 265.915 230.111 263.606 235.317 259.702C240.923 255.504 242.401 253.88 243.584 251.835C246.774 246.356 246.011 240.583 245.14 233.91C244.455 228.675 243.467 225.534 242.596 222.775C242.596 222.775 242.596 222.775 242.596 222.765C241.5 223.675 240.424 224.615 239.358 225.554C240.043 227.814 240.737 230.495 241.256 234.429C242.107 240.886 242.714 245.554 240.199 249.878C239.406 251.248 238.467 252.452 232.968 256.581C227.89 260.387 224.299 262.657 221.413 264.467C221.413 264.467 218.947 266.072 216.178 267.921C205.542 275.025 202.391 278.381 201.208 279.711C199.045 285.112 197.216 290.68 195.709 296.374C195.797 296.189 195.885 296.012 195.973 295.827C199.124 289.447 200.758 286.189 203.37 283.067L203.36 283.077Z" fill="#D94426"/>
<path d="M226.491 422.82C231.305 428.114 237.508 434.131 245.121 440.051C245.463 438.456 245.453 435.707 247.508 431.646C248.477 429.738 250.708 425.932 254.915 422.801C256.383 421.705 257.733 420.961 258.741 420.472C259.083 420.316 259.426 420.169 259.768 420.032C261.236 420.619 262.919 421.059 264.709 421.059C265.306 421.059 265.922 421.01 266.549 420.903C267.615 420.717 269.827 420.345 271.881 418.75C272.048 418.623 272.204 418.496 272.351 418.378C272.566 418.271 272.693 418.182 272.684 418.134C272.684 418.134 272.674 418.134 272.664 418.124C275.394 415.893 275.286 415.237 275.169 414.543L273.858 413.016C272.899 412.703 272.204 413.192 271.872 413.486C271.872 413.486 271.852 413.505 271.842 413.515C271.803 413.554 271.764 413.584 271.735 413.613C271.284 414.044 269.993 415.257 269.484 415.658C268.202 416.656 266.754 416.901 265.883 417.047C263.046 417.537 260.228 416.079 258.584 414.993C259.915 412.713 260.062 409.846 259.005 406.431C260.561 405.326 262.488 403.486 263.711 400.59C265.101 397.312 264.905 394.279 264.562 392.439C264.641 392.253 264.69 392.058 264.749 391.872C267.909 396.216 273.486 400.795 283.271 404.484L284.65 400.825C261.735 392.175 264.807 378.937 264.954 378.379H264.934C265.12 378.213 265.296 378.037 265.463 377.841C267.4 375.63 267.126 372.469 266.793 370.796C265.834 365.913 260.737 363.056 255.336 360.777C251.97 357.557 245.962 350.552 246.148 341.54C246.256 336.208 247.469 333.81 248.203 333.556C249.504 333.116 254.034 336.56 260.629 347.724L260.854 348.027C262.919 350.356 265.208 352.46 267.654 354.299C268.936 355.258 270.277 356.158 271.656 356.98C285.912 366.97 288.936 377.312 288.965 377.41C291.959 382.567 294.953 387.723 297.947 392.889C299.611 392.39 301.832 391.911 304.474 391.803C307.712 391.676 310.413 392.175 312.301 392.674C311.704 390.482 308.505 377.968 315.961 366.383C320.1 359.964 325.647 356.706 328.553 355.278C330.158 355.757 331.831 356.295 333.563 356.921C334.6 357.303 335.608 357.685 336.577 358.076C334.894 359.152 333.289 360.326 331.782 361.628C330.53 362.714 326.205 366.667 323.162 371.911C316.646 383.173 318.691 396.197 319.874 401.275L320.99 406.05L316.509 404.073C306.186 399.514 294.396 401.236 287.175 408.349C280.56 414.866 280.022 423.447 280.1 426.832L280.159 429.65L277.361 429.308C269.425 428.349 263.075 429.846 258.496 433.779C254.729 437.008 252.753 441.352 251.696 444.904C261.989 452.008 274.416 458.622 289.112 463.221C289.298 463.27 310.325 469.493 330.599 469.493C407.525 469.493 470.097 406.911 470.097 329.994C470.097 298.146 458.835 266.894 438.375 242.002L442.152 238.891C442.338 239.125 442.524 239.36 442.719 239.595C444.598 237.912 449.109 233.881 455.273 228.362C457.426 226.582 459.774 224.351 462.22 221.699C464.333 219.41 466.202 217.061 467.66 214.733C468.384 213.705 471.036 209.674 470.312 204.292C469.891 201.161 468.502 198.911 467.66 197.756C465.106 195.193 460.997 193.187 455.283 191.71C453.982 191.416 452.67 191.122 451.369 190.829C440.988 188.803 426.321 188.168 407.035 188.852C404.442 185.115 401.527 181.377 398.327 177.923C397.368 176.945 396.419 175.976 395.46 174.998C389.129 168.872 381.811 164.078 373.689 162.591C370.979 162.092 368.484 162.121 368.122 162.121C360.901 162.121 355.275 164.401 352.066 166.035C350.138 167.004 347.937 168.285 345.647 169.968C342.712 172.121 340.432 174.332 338.7 176.26C337.174 175.77 318.153 169.714 304.356 181.925C301.891 184.107 299.816 186.67 298.065 189.508C298.133 189.488 298.212 189.469 298.28 189.449L299.425 194.205C297.957 194.557 296.509 194.948 295.061 195.34C294.621 196.357 294.2 197.385 293.828 198.431C289.034 200.281 279.161 205.251 272.742 216.376C266.891 226.533 266.862 236.444 267.557 242.08C250.492 255.632 243.614 265.827 246.128 273.508C247.038 276.297 249.113 278.508 251.94 280.269C249.338 281.62 246.549 283.655 244.211 286.708C240.718 287.49 233.565 289.868 228.242 296.854C223.37 303.243 222.587 310.034 222.675 314.232C220.757 315.063 217.421 316.834 214.691 320.396C213.477 321.981 212.675 323.537 212.137 324.838H206.227C206.159 324.359 205.258 318.791 200.043 316.247C196.824 314.672 193.742 315.122 192.02 315.592C191.971 316.012 191.903 316.433 191.854 316.854L186.991 316.306C187.186 314.545 187.431 312.793 187.695 311.052C185.582 308.742 182.783 307.206 179.721 306.805C173.419 305.993 166.971 310.161 164.799 316.942C162.891 315.934 160.308 315.093 157.295 315.376C150.641 316.012 145.015 321.981 144.477 328.947C144.066 334.358 146.884 338.409 148.391 340.161C148.224 346.393 148.4 352.567 148.919 358.516C149.31 362.959 149.878 366.843 153.038 369.377C154.692 370.708 156.756 371.412 159.173 371.491V415.873C159.173 425.296 166.629 432.967 175.797 432.967H201.022C203.722 432.938 206.071 432.908 208.008 432.879C214.857 432.781 216.276 432.752 218.438 432.077C221.589 431.098 223.624 429.611 224.348 429.053C224.602 428.857 224.808 428.642 224.994 428.427C224.26 427.644 223.546 426.881 222.861 426.128L226.481 422.84L226.491 422.82ZM340.892 355.649C336.156 353.556 331.244 351.814 326.274 350.483C324.884 350.111 323.788 349.857 322.555 349.564C320.833 349.153 318.886 348.693 315.423 347.763C308.026 345.767 304.278 344.446 301.969 340.943C301.685 340.513 301.519 340.229 301.362 339.896C300.305 337.714 299.914 333.742 299.738 323.566C299.738 323.018 299.738 322.46 299.718 321.912C303.182 322.147 306.675 322.314 310.139 322.372C310.56 322.372 310.99 322.382 311.431 322.382C313.828 322.382 316.636 322.177 319.513 320.601C320.569 320.024 321.558 319.31 322.448 318.488L319.787 315.621C319.131 316.228 318.417 316.746 317.644 317.167C315.315 318.439 313.094 318.507 310.207 318.458C306.705 318.4 303.182 318.233 299.689 317.989C299.67 314.848 299.679 311.707 299.718 308.605C299.738 307.167 298.848 305.856 297.507 305.357C295.981 304.789 294.63 303.968 293.486 302.901C292.595 302.069 290.903 300.279 290.188 298.126C303.163 297.138 317.947 295.23 334.052 291.717C350.891 288.038 365.696 283.381 378.279 278.645C377.809 280.494 377.437 282.461 377.212 284.565C377.085 285.749 376.938 287.07 376.84 288.469C372.3 288.391 366.449 289.075 360.324 291.835C351.782 295.69 345.647 301.551 342.105 309.232C335.549 323.429 341.528 336.804 342.232 338.292C345.031 344.172 349.091 348.262 352.751 350.992C348.837 352.176 344.796 353.702 340.892 355.659V355.649ZM357.731 349.632C353.974 347.362 348.944 343.292 345.774 336.609C345.148 335.298 339.864 323.449 345.667 310.875C348.807 304.065 354.287 298.86 361.948 295.406C367.418 292.94 372.643 292.324 376.723 292.383C376.742 294.907 377.026 297.568 377.809 300.21C376.067 300.083 374.228 300.142 372.3 300.445C369.619 300.866 360.471 302.921 355.089 311.776C351.322 317.979 351.459 324.319 351.87 327.539C353.083 336.99 359.267 342.548 361.87 344.495C363.788 345.933 365.744 346.98 367.613 347.734C364.697 348.155 361.322 348.771 357.741 349.642L357.731 349.632ZM377.222 329.221C373.836 335.875 373.915 342.166 374.267 345.493C371.488 345.092 367.77 344.025 364.208 341.354C362.486 340.063 356.792 335.219 355.735 327.02C355.383 324.3 355.265 318.967 358.416 313.791C363.034 306.189 371.283 304.545 372.887 304.29C375.265 303.919 377.486 304.026 379.531 304.388C380.089 305.396 380.734 306.394 381.507 307.353C385.46 312.265 390.724 314.202 393.484 314.995C391.37 315.758 382.261 319.3 377.212 329.221H377.222ZM306.949 184.831C314.747 177.923 325.98 176.543 340.315 180.712L341.479 181.054L342.301 180.164C352.408 169.176 362.731 164.548 372.975 166.426C387.221 169.019 399.169 183.49 407.143 196.25C382.466 220.163 352.702 227.922 331.939 230.202C312.986 232.276 297.908 230.3 293.143 229.527C293.202 214.234 295.746 194.752 306.949 184.831ZM276.108 218.323C280.805 210.183 287.537 205.692 292.243 203.373C290.178 211.005 289.366 219.165 289.19 226.582C282.38 231.073 276.382 235.28 271.206 239.213C270.903 233.949 271.558 226.22 276.108 218.323ZM249.827 272.285C248.007 266.737 253.496 255.143 289.161 231.308C289.259 242.393 290.599 250.896 290.736 251.738L290.952 253.049L292.243 253.333C301.93 255.485 311.303 256.405 320.266 256.405C345.95 256.405 368.142 248.881 383.777 241.444C406.605 230.603 420.401 217.981 420.978 217.443L421.966 216.523L421.458 215.271C421.096 214.371 416.859 203.999 409.57 192.659C453.492 191.338 464.911 197.688 466.652 203.334C471.359 218.578 419.921 253.313 368.377 269.702C316.832 286.101 254.788 287.441 249.817 272.275L249.827 272.285ZM250.16 362.9C251.148 363.291 252.165 363.692 253.164 364.103C253.291 364.221 253.428 364.348 253.555 364.465L253.682 364.319C258.183 366.207 262.322 368.428 262.928 371.53C263.251 373.144 263.075 374.573 262.488 375.248C262.283 375.483 261.931 375.718 261.324 376.099C258.692 376.637 256.011 376.921 253.349 376.921H253.33C247.723 376.921 242.195 375.747 236.912 373.418L235.336 376.999C241.119 379.543 247.175 380.825 253.33 380.825H253.349C254.563 380.825 255.776 380.757 256.999 380.649L257.488 381.07C258.222 381.686 261.842 384.984 261.382 389.103C261.343 389.475 261.265 389.837 261.167 390.199C258.339 390.815 255.463 391.148 252.596 391.148H252.586C246.98 391.148 241.452 389.974 236.168 387.645L234.592 391.226C240.375 393.77 246.432 395.052 252.586 395.052H252.596C255.345 395.052 258.115 394.768 260.835 394.25C260.942 395.541 260.835 397.234 260.081 399.024C258.976 401.627 257.058 403.036 256.021 403.652C252.469 404.044 248.878 404.044 245.346 403.623C241.97 403.222 238.634 402.449 235.414 401.334L234.123 405.032C237.606 406.245 241.226 407.077 244.876 407.517C246.862 407.752 248.858 407.87 250.855 407.87C252.322 407.87 253.8 407.782 255.258 407.654C256.011 410.13 255.913 412.057 254.935 413.369C252.929 416.079 247.479 416.265 245.61 416.118C239.945 415.492 235.375 413.545 232.039 410.335C230.238 408.603 229.015 406.412 228.242 403.662C227.851 402.478 227.46 401.001 227.254 399.249C227.009 397.195 227.088 395.404 227.254 394.024C227.792 383.193 228.389 374.328 228.829 367.988C228.957 366.207 229.348 363.673 231.109 362.019C232.851 360.385 235.248 360.258 238.448 360.258H238.487C241.823 360.258 245.737 361.139 250.14 362.87L250.16 362.9ZM243.731 356.902C241.902 356.55 240.16 356.364 238.506 356.364C235.365 356.364 231.461 356.364 228.448 359.182C228.379 359.24 228.33 359.309 228.262 359.368V344.701C228.869 344.701 229.485 344.72 230.082 344.769C233.888 345.053 238.624 345.415 241.393 349.045C243.164 351.374 243.673 354.407 243.731 356.902ZM231.334 299.212C234.426 295.161 238.242 292.911 241.305 291.678C238.477 298.518 239.661 305.474 240.718 309.251C240.639 309.251 240.571 309.251 240.493 309.251C236.774 309.251 231.784 309.828 226.618 312.108C226.843 308.615 227.87 303.742 231.324 299.202L231.334 299.212ZM221.276 328.722C222.968 328.722 224.348 330.171 224.348 331.961V354.74C220.787 356.481 210.219 360.845 193.468 360.845H193.38C177.392 360.835 167.06 356.843 163.087 354.974V346.198C164.124 346.883 165.396 347.45 166.913 347.636C170.103 348.047 173.263 346.687 175.465 344.172C178.371 348.947 183.537 351.99 189.114 351.99C189.31 351.99 189.496 351.99 189.691 351.98C195.993 351.745 201.472 347.763 203.879 341.892C208.527 342.313 212.773 341.579 216.305 339.681C217.558 339.006 223.751 335.484 222.421 332.304C221.775 330.777 220.61 330.797 217.783 330.865C217.098 330.875 216.246 330.895 215.18 330.914C212.43 330.953 209.916 331.002 207.675 331.061C207.607 330.259 207.489 329.486 207.342 328.722H221.256H221.276ZM159.183 367.547C157.686 367.479 156.443 367.068 155.494 366.305C153.537 364.73 153.146 361.931 152.823 358.154C152.295 352.107 152.128 345.816 152.334 339.466L152.363 338.634L151.786 338.037C150.905 337.127 148.038 333.801 148.391 329.221C148.772 324.173 152.94 319.701 157.676 319.241C160.934 318.928 163.557 320.572 164.819 321.57L167.451 323.654L167.969 320.337C168.899 314.408 174.065 309.965 179.222 310.641C183.126 311.149 186.472 314.496 187.558 318.967L188.106 321.218L190.239 320.298C191.687 319.672 193.899 319.065 196.169 319.701C199.583 320.67 202.284 324.192 203.37 328.693C203.703 330.063 203.889 331.531 203.889 333.037V335.043L205.894 334.994C208.575 334.926 211.726 334.857 215.268 334.808C215.806 334.808 216.286 334.789 216.726 334.779C216.07 335.268 215.297 335.767 214.485 336.208C210.836 338.165 206.159 338.605 200.953 337.47L200.366 340.18C198.566 344.759 194.388 347.861 189.564 348.047C184.231 348.262 179.31 344.71 177.598 339.436L175.924 334.309L173.919 339.319C172.735 342.264 170.064 344.094 167.431 343.742C164.868 343.419 163.39 341.1 163.116 340.64V340.562H159.203V367.528L159.183 367.547ZM211.638 429.043H175.797C168.791 429.043 163.087 423.133 163.087 415.864V359.26C168.243 361.422 178.576 364.749 193.38 364.769H193.468C208.82 364.769 219.378 361.197 224.348 359.045V374.299C223.145 387.938 222.597 397.41 224.348 404.249V415.864C224.348 423.133 218.644 429.043 211.638 429.043Z" fill="#D94426"/>
<path d="M212.196 414.21C211.12 415.414 209.28 416.167 207.333 416.167C205.386 416.167 203.546 415.414 202.47 414.21V372.978H198.556V414.21C197.48 415.414 195.64 416.167 193.693 416.167C191.746 416.167 189.907 415.414 188.83 414.21V372.978H184.329V414.21C183.253 415.414 181.414 416.167 179.466 416.167C177.519 416.167 175.68 415.414 174.604 414.21V369.534H170.69V415.482L171.032 415.981C172.764 418.506 175.993 420.081 179.466 420.081C182.196 420.081 184.76 419.103 186.57 417.469C188.39 419.103 190.953 420.081 193.674 420.081C196.257 420.081 198.693 419.21 200.493 417.733C202.284 419.21 204.73 420.081 207.313 420.081C210.787 420.081 214.016 418.506 215.748 415.981L216.09 415.482V369.534H212.176V414.21H212.196Z" fill="#D94426"/>
<path d="M442.71 239.566C442.524 239.331 442.338 239.096 442.142 238.861L438.365 241.973C458.825 266.864 470.087 298.106 470.087 329.965C470.087 406.891 407.505 469.463 330.589 469.463C310.325 469.463 289.288 463.25 289.102 463.191C274.406 458.602 261.979 451.988 251.686 444.875C249.387 443.28 247.195 441.665 245.111 440.051C237.499 434.141 231.295 428.123 226.481 422.82L222.861 426.108C223.546 426.861 224.26 427.624 224.994 428.407C237.675 441.792 258.34 458.7 287.674 467.868C288.554 468.132 309.591 474.355 330.589 474.355C410.206 474.355 474.979 409.582 474.979 329.965C474.979 297.275 463.521 265.221 442.71 239.566Z" fill="#D94426"/>
<path d="M191.844 316.825C191.893 316.404 191.961 315.983 192.01 315.562C192.812 309.026 194.055 302.617 195.699 296.375C197.206 290.68 199.036 285.113 201.198 279.712C209.574 258.783 222.734 240.251 239.348 225.554C240.414 224.615 241.491 223.676 242.586 222.766C257.704 210.183 275.492 200.702 295.032 195.33C296.48 194.929 297.928 194.537 299.396 194.195L298.251 189.44C298.182 189.459 298.104 189.479 298.036 189.498C240.277 203.432 196.531 251.885 187.666 311.032C187.402 312.774 187.167 314.525 186.961 316.287L191.824 316.834L191.844 316.825Z" fill="#D94426"/>
</svg>
