<svg width="644" height="217" viewBox="0 0 644 217" fill="none" xmlns="http://www.w3.org/2000/svg">
<path d="M0 165.14V1.65002H36.21L31.96 21.4701H19.8101V72.66H33.49V92.4801H19.8101V145.44H31.96L36.21 165.14H0Z" fill="#D94426"/>
<path d="M70.0698 148.27V23.24C70.0698 21.24 68.8899 20.0601 66.4099 19.5801C64.3999 19.5801 63.3399 20.76 63.1099 23.24V165.14H43.29V18.64C43.29 4.84001 54.9699 0 66.4099 0C74.7799 0 89.8799 2.71001 89.8799 18.64V143.67C89.8799 145.67 91.06 146.85 93.54 147.33C95.55 147.33 96.6098 146.15 96.8398 143.67V1.65002H116.66V148.27C116.66 162.07 104.98 166.91 93.54 166.91C85.17 166.91 70.0698 164.2 70.0698 148.27Z" fill="#D94426"/>
<path d="M127.28 148.27V18.64C127.28 4.84001 138.96 0 150.4 0C158.77 0 173.87 2.71001 173.87 18.64V33.5L154.05 40.1101V23.24C154.05 21.24 152.87 20.0601 150.39 19.5801C148.38 19.5801 147.32 20.76 147.09 23.24V143.67C147.09 145.44 148.15 147.33 150.39 147.33C152.4 147.33 153.57 146.15 154.05 143.67V126.8L173.87 133.41V148.27C173.87 162.19 161.84 166.91 150.4 166.91C137.66 166.91 127.28 161.25 127.28 148.27Z" fill="#D94426"/>
<path d="M210.2 165.14L207.72 115.83C207.6 113.82 206.54 112.65 204.65 112.29H200.76V165.13H180.94V1.64001H204.06C212.43 1.64001 227.53 4.35003 227.53 20.28V93.41C227.53 97.66 226.47 101.19 224.23 104.14C226.35 106.85 227.42 109.92 227.53 113.34L230.01 165.12H210.19L210.2 165.14ZM207.72 88.8201V24.89C207.72 22.89 206.54 21.7101 204.06 21.4701H200.76V92.4801H204.06C206.07 92.4801 207.36 91.3001 207.72 88.8201Z" fill="#D94426"/>
<path d="M238.27 148.27V1.65002H258.09V143.67C258.09 145.44 259.15 147.33 261.39 147.33C263.4 147.33 264.58 146.15 265.05 143.67V1.65002H284.87V148.27C284.87 162.19 272.84 166.91 261.4 166.91C248.66 166.91 238.28 161.25 238.28 148.27H238.27Z" fill="#D94426"/>
<path d="M351.51 165.14V1.65002H371.33V165.14H351.51Z" fill="#D94426"/>
<path d="M346.5 82.29C327.81 89.32 309.12 96.35 290.43 103.38C290.64 95.09 290.86 86.8 291.07 78.52C309.74 72.35 328.41 66.17 347.08 60C346.89 67.43 346.7 74.87 346.51 82.3L346.5 82.29Z" fill="#D94426"/>
<path d="M383.13 165.14V1.65002H402.95V145.44H415.1L419.35 165.14H383.14H383.13Z" fill="#D94426"/>
<path d="M452.01 165.14V92.6001H445.05V165.14H425.23V1.65002H445.05V72.78H452.01V1.65002H471.83V165.14H452.01Z" fill="#D94426"/>
<path d="M497.775 43.23C498.745 43.72 501.165 44.69 504.085 43.92C506.745 43.22 508.335 41.44 508.925 40.65L527.475 11C524.265 3.84 516.255 0 505.555 0C491.515 0 482.435 6.72001 482.435 18.64V33.63L497.775 43.23Z" fill="#D94426"/>
<path d="M518.195 52.69C518.775 55.6 520.625 57.38 521.475 58.07L529.025 62.79V30.75L518.915 46.9C518.395 47.98 517.665 50.1 518.185 52.69H518.195Z" fill="#D94426"/>
<path d="M515.105 67.97C514.835 67.75 512.335 65.83 509.065 66.55C505.745 67.28 504.295 70.15 504.145 70.48L504.035 70.68L482.435 105.2V165.14H502.255V92.48H509.215V165.14H529.035V76.69L515.115 67.97H515.105Z" fill="#D94426"/>
<path d="M491.345 53.1201L482.435 47.54V82.98L493.985 64.52C494.515 63.48 495.285 61.4401 494.875 58.9301C494.355 55.7401 492.275 53.83 491.335 53.11L491.345 53.1201Z" fill="#D94426"/>
<path d="M539.66 165.14V1.65002H562.78C571.15 1.65002 586.25 4.36004 586.25 20.29V146.27C586.25 160.42 574.34 165.14 562.78 165.14H539.66ZM566.43 141.67V24.89C566.43 22.89 565.25 21.7101 562.77 21.4701H559.47V145.44H562.77C564.78 145.44 566.07 144.14 566.43 141.66V141.67Z" fill="#D94426"/>
<path d="M623.64 165.14V92.4801H616.68V165.14H596.86V18.64C596.86 6.73001 605.94 0 619.98 0C634.02 0 643.45 6.61001 643.45 18.64V165.14H623.63H623.64ZM623.64 23.24C623.64 21.24 622.46 20.0601 619.98 19.5801C617.98 19.5801 616.91 20.76 616.68 23.24V72.66H623.64V23.24Z" fill="#D94426"/>
<path d="M341.75 2.78003V21.4701C333.7 61.3001 325.65 101.12 317.6 140.95C325.24 141.05 332.88 141.15 340.53 141.26C340.94 148.3 341.34 155.33 341.75 162.37H293.79V141.87C302.63 101.74 311.48 61.6101 320.32 21.4801H293.79V2.79004H341.75V2.78003Z" fill="#D94426"/>
<path d="M269.91 216.33V190.91H277.38C279.61 190.91 281.39 191.44 282.73 192.51C284.06 193.58 284.73 194.99 284.73 196.75C284.73 198.15 284.33 199.39 283.54 200.46C282.75 201.53 281.66 202.29 280.27 202.74V202.81C282 203.01 283.38 203.66 284.41 204.77C285.44 205.88 285.96 207.29 285.96 209C285.96 211.19 285.17 212.96 283.6 214.31C282.03 215.66 280.02 216.34 277.57 216.34H269.91V216.33ZM273.19 193.79V201.75H276.18C277.77 201.75 279.01 201.36 279.91 200.59C280.81 199.82 281.26 198.75 281.26 197.38C281.26 194.98 279.66 193.79 276.47 193.79H273.19ZM273.19 204.6V213.46H277.13C278.85 213.46 280.17 213.06 281.11 212.27C282.04 211.48 282.51 210.37 282.51 208.96C282.51 206.05 280.54 204.6 276.59 204.6H273.19Z" fill="#D94426"/>
<path d="M331.12 216.33H327.49L324.9 209.37H314.32L311.88 216.33H308.25L317.93 190.91H321.44L331.12 216.33ZM323.88 206.5L320.04 195.93C319.92 195.59 319.79 195 319.65 194.16H319.57C319.45 194.93 319.31 195.52 319.16 195.93L315.35 206.5H323.88Z" fill="#D94426"/>
<path d="M373.52 216.33H369.65L365.43 209.27C364.59 207.86 363.82 206.9 363.12 206.39C362.42 205.88 361.58 205.63 360.61 205.63H358.25V216.33H354.97V190.91H362.72C365.19 190.91 367.13 191.51 368.53 192.7C369.93 193.89 370.63 195.56 370.63 197.7C370.63 201.22 368.75 203.51 364.99 204.56V204.64C365.69 204.94 366.29 205.36 366.8 205.9C367.31 206.44 367.97 207.38 368.78 208.71L373.54 216.32L373.52 216.33ZM358.24 193.79V202.77H362.11C363.61 202.77 364.83 202.33 365.76 201.46C366.7 200.58 367.16 199.44 367.16 198.01C367.16 196.69 366.73 195.65 365.88 194.91C365.03 194.17 363.79 193.79 362.16 193.79H358.24Z" fill="#D94426"/>
</svg>
