<svg width="644" height="631" viewBox="0 0 644 631" fill="none" xmlns="http://www.w3.org/2000/svg">
<path d="M245.495 90.86H241.495C241.495 86.26 223.715 68.48 219.115 68.48V64.48C223.715 64.48 241.495 46.7 241.495 42.1H245.495C245.495 46.7 263.275 64.48 267.875 64.48V68.48C263.275 68.48 245.495 86.26 245.495 90.86ZM224.255 66.49C230.665 70.42 239.575 79.32 243.505 85.74C247.435 79.33 256.335 70.42 262.755 66.49C256.345 62.56 247.435 53.66 243.505 47.24C239.575 53.65 230.675 62.56 224.255 66.49Z" fill="#252525"/>
<path d="M407.675 248.87C403.385 248.87 399.895 252.36 399.895 256.65V278.82C399.895 283.11 403.385 286.6 407.675 286.6C408.645 286.6 409.565 286.41 410.425 286.09L404.495 280.16L410.855 273.8L415.455 278.4V256.66C415.455 252.37 411.965 248.88 407.675 248.88V248.87Z" fill="#252525"/>
<path d="M455.545 0.0100098H187.805C180.245 0.0100098 174.105 6.15996 174.105 13.71V186.01C172.815 185.34 171.425 184.89 169.975 184.7C163.375 183.83 157.045 188.33 154.725 195.06C152.775 194.03 150.135 193.17 147.055 193.46C140.255 194.11 134.505 200.21 133.955 207.33C133.535 212.86 136.415 217 137.955 218.79C137.785 225.16 137.965 231.47 138.495 237.55C138.895 242.09 139.475 246.06 142.705 248.65C144.395 250.01 146.505 250.73 148.975 250.81V296.17C148.975 305.8 156.595 313.64 165.965 313.64H174.085V364.03C174.085 371.59 180.235 377.73 187.785 377.73H455.525C463.085 377.73 469.225 371.58 469.225 364.03V13.7C469.225 6.13995 463.075 0 455.525 0L455.545 0.0100098ZM148.995 246.81C147.465 246.74 146.195 246.32 145.225 245.54C143.225 243.93 142.825 241.07 142.495 237.21C141.955 231.03 141.785 224.6 141.995 218.11L142.025 217.26L141.435 216.65C140.535 215.72 137.605 212.32 137.965 207.64C138.355 202.48 142.615 197.91 147.455 197.44C150.785 197.12 153.465 198.8 154.755 199.82L157.445 201.95L157.975 198.56C158.925 192.5 164.205 187.96 169.475 188.65C173.465 189.17 176.885 192.59 177.995 197.16L178.555 199.46L180.735 198.52C182.215 197.88 184.475 197.26 186.795 197.91C190.285 198.9 193.045 202.5 194.155 207.1C194.495 208.5 194.685 210 194.685 211.54V213.59L196.735 213.54C199.475 213.47 202.695 213.4 206.315 213.35C206.865 213.35 207.355 213.33 207.805 213.32C207.135 213.82 206.345 214.33 205.515 214.78C201.785 216.78 197.005 217.23 191.685 216.07L191.085 218.84C189.245 223.52 184.975 226.69 180.045 226.88C174.595 227.1 169.565 223.47 167.815 218.08L166.105 212.84L164.055 217.96C162.845 220.97 160.115 222.84 157.425 222.48C154.805 222.15 153.295 219.78 153.015 219.31V219.23H149.015V246.79L148.995 246.81ZM236.835 107.17C236.135 101.82 235.125 98.61 234.235 95.79C233.355 93 232.665 90.7999 232.475 87.2C232.305 83.9399 232.615 80.65 233.395 77.37C233.485 77.24 233.575 77.11 233.665 76.98C232.645 76 231.825 74.77 231.245 73.39C231.035 73.3 230.845 73.19 230.635 73.09C230.515 73.25 230.405 73.3899 230.285 73.5499C228.845 78.1499 228.225 82.8 228.475 87.4C228.695 91.51 229.525 94.16 230.415 96.98C231.255 99.65 232.205 102.68 232.865 107.68C233.735 114.28 234.355 119.05 231.785 123.47C230.975 124.87 230.015 126.1 224.395 130.32C219.205 134.21 215.535 136.53 212.585 138.38C210.635 139.61 208.955 140.66 207.235 141.91C203.015 144.96 199.175 148.72 195.755 153.11V108.91C200.535 107.43 204.365 105.01 207.135 101.67C213.045 94.5499 211.865 85.9399 210.625 76.8199C209.415 67.9599 208.045 57.92 212.715 47.11C214.525 42.91 218.875 35.04 227.605 29.49C234.345 25.2 241.305 23.79 246.885 23.52H302.265C302.185 31.56 300.205 37.4999 296.365 41.1699C291.745 45.5899 285.775 45.7299 278.225 45.9199C269.845 46.1299 260.375 46.38 250.115 52.6C250.015 52.44 249.835 52.23 249.565 52.1C249.285 51.96 248.925 51.9299 248.455 52.0599C248.475 52.0599 248.485 52.07 248.505 52.08C248.505 52.08 248.505 52.08 248.515 52.08C249.575 52.54 250.615 53.03 251.615 53.63C252.355 54.07 252.995 54.62 253.555 55.23C262.415 50.33 270.835 50.1099 278.325 49.9199C286.075 49.7299 293.385 49.5399 299.135 44.0599C303.795 39.6099 306.185 32.7 306.265 23.52H349.855L346.455 24.0499C346.955 27.2799 347.535 35.59 342.015 42.99C338.885 47.19 334.955 49.4899 332.205 50.6899L332.455 51.27C317.705 47.57 305.895 49.4999 297.355 57.0599C292.395 61.4499 288.945 67.3699 286.575 73.9399C281.675 75.8299 271.585 80.91 265.025 92.28C259.045 102.66 259.015 112.79 259.725 118.55C242.285 132.4 235.255 142.82 237.825 150.67C238.755 153.52 240.875 155.78 243.765 157.58C241.105 158.96 238.255 161.04 235.865 164.16C232.295 164.96 224.985 167.39 219.545 174.53C214.565 181.06 213.765 188 213.855 192.29C213.445 192.54 213.035 192.81 212.625 193.09C208.775 195.72 205.575 199.1 203.075 203.13H197.035C196.655 202.21 196.225 201.33 195.735 200.51V160.02C199.655 153.95 204.305 148.95 209.555 145.15C211.175 143.98 212.805 142.95 214.695 141.76C217.705 139.86 221.455 137.5 226.775 133.51C232.505 129.22 234.015 127.56 235.225 125.47C238.485 119.87 237.705 113.97 236.815 107.15L236.835 107.17ZM350.405 23.54H398.035C397.535 28.63 396.605 33.58 395.205 38.27C393.945 42.48 392.345 46.4 390.445 50C383.975 43.74 376.495 38.8399 368.195 37.3199C361.395 36.0799 354.645 37.24 347.995 40.73C351.355 33.6 350.875 26.64 350.395 23.53L350.405 23.54ZM368.815 224.28C365.975 223.87 362.175 222.78 358.535 220.05C356.775 218.73 350.955 213.78 349.875 205.4C349.515 202.62 349.395 197.17 352.615 191.88C357.335 184.11 365.765 182.43 367.405 182.17C369.835 181.79 372.105 181.9 374.195 182.27C374.765 183.3 375.425 184.32 376.215 185.3C380.255 190.32 385.635 192.3 388.455 193.11C386.295 193.89 376.985 197.51 371.825 207.65C368.365 214.45 368.445 220.88 368.805 224.28H368.815ZM313.215 281.27L314.355 286.15L309.775 284.13C299.225 279.47 287.175 281.23 279.795 288.5C273.035 295.16 272.485 303.93 272.565 307.39L272.625 310.27L269.765 309.92C261.655 308.94 255.165 310.47 250.485 314.49C242.775 321.11 242.345 332.29 242.345 332.41L242.245 335.44L239.285 334.77C237.305 334.32 219.565 330.7 207.045 342.39C202.195 346.91 199.705 352.26 198.425 356.3C196.835 355.39 195.755 353.71 195.755 351.75V346.26C197.745 340.7 201.865 333.23 210.315 328.38C221.855 321.77 233.355 324.69 235.615 325.31C235.585 322.85 235.815 316.05 240.485 309.47C241.645 307.83 244.945 303.59 250.725 300.91C251.075 300.75 251.425 300.6 251.775 300.46C253.275 301.06 254.995 301.51 256.825 301.51C257.435 301.51 258.065 301.46 258.705 301.35C259.795 301.16 262.055 300.78 264.155 299.15C264.325 299.02 264.485 298.89 264.635 298.77C264.855 298.66 264.985 298.57 264.975 298.52C264.975 298.52 264.965 298.52 264.955 298.51C267.745 296.23 267.635 295.56 267.515 294.85L266.175 293.29C265.195 292.97 264.485 293.47 264.145 293.77C264.145 293.77 264.125 293.79 264.115 293.8C264.075 293.84 264.035 293.87 264.005 293.9C263.545 294.34 262.225 295.58 261.705 295.99C260.395 297.01 258.915 297.26 258.025 297.41C255.125 297.91 252.245 296.42 250.565 295.31C251.925 292.98 252.075 290.05 250.995 286.56C252.585 285.43 254.555 283.55 255.805 280.59C257.225 277.24 257.025 274.14 256.675 272.26C256.755 272.07 256.805 271.87 256.865 271.68C260.095 276.12 265.795 280.8 275.795 284.57L277.205 280.83C253.785 271.99 256.925 258.46 257.075 257.89H257.055C257.245 257.72 257.425 257.54 257.595 257.34C259.575 255.08 259.295 251.85 258.955 250.14C257.975 245.15 252.765 242.23 247.245 239.9C243.805 236.61 237.665 229.45 237.855 220.24C237.965 214.79 239.205 212.34 239.955 212.08C241.285 211.63 245.915 215.15 252.655 226.56L252.885 226.87C254.995 229.25 257.335 231.4 259.835 233.28C261.145 234.26 262.515 235.18 263.925 236.02C278.495 246.23 281.585 256.8 281.615 256.9C284.675 262.17 287.735 267.44 290.795 272.72C292.495 272.21 294.765 271.72 297.465 271.61C300.775 271.48 303.535 271.99 305.465 272.5C304.855 270.26 301.585 257.47 309.205 245.63C313.435 239.07 319.105 235.74 322.075 234.28C323.715 234.77 325.425 235.32 327.195 235.96C328.255 236.35 329.285 236.74 330.275 237.14C328.555 238.24 326.915 239.44 325.375 240.77C324.095 241.88 319.675 245.92 316.565 251.28C309.905 262.79 311.995 276.1 313.205 281.29L313.215 281.27ZM213.635 210.8C212.975 209.24 211.785 209.26 208.895 209.33C208.195 209.34 207.325 209.36 206.235 209.38C203.425 209.42 200.855 209.47 198.565 209.53C198.495 208.71 198.375 207.92 198.225 207.14H212.445C214.175 207.14 215.585 208.62 215.585 210.45V233.73C211.945 235.51 201.145 239.97 184.025 239.97H183.935C167.595 239.96 157.035 235.88 152.975 233.97V225C154.035 225.7 155.335 226.28 156.885 226.47C160.145 226.89 163.375 225.5 165.625 222.93C168.595 227.81 173.875 230.92 179.575 230.92C179.775 230.92 179.965 230.92 180.165 230.91C186.605 230.67 192.205 226.6 194.665 220.6C199.415 221.03 203.755 220.28 207.365 218.34C208.645 217.65 214.975 214.05 213.615 210.8H213.635ZM245.225 260.4H245.245C246.485 260.4 247.725 260.33 248.975 260.22L249.475 260.65C250.225 261.28 253.925 264.65 253.455 268.86C253.415 269.24 253.335 269.61 253.235 269.98C250.345 270.61 247.405 270.95 244.475 270.95H244.465C238.735 270.95 233.085 269.75 227.685 267.37L226.075 271.03C231.985 273.63 238.175 274.94 244.465 274.94H244.475C247.285 274.94 250.115 274.65 252.895 274.12C253.005 275.44 252.895 277.17 252.125 279C250.995 281.66 249.035 283.1 247.975 283.73C244.345 284.13 240.675 284.13 237.065 283.7C233.615 283.29 230.205 282.5 226.915 281.36L225.595 285.14C229.155 286.38 232.855 287.23 236.585 287.68C238.615 287.92 240.655 288.04 242.695 288.04C244.195 288.04 245.705 287.95 247.195 287.82C247.965 290.35 247.865 292.32 246.865 293.66C244.815 296.43 239.245 296.62 237.335 296.47C231.545 295.83 226.875 293.84 223.465 290.56C221.625 288.79 220.375 286.55 219.585 283.74C219.185 282.53 218.785 281.02 218.575 279.23C218.325 277.13 218.405 275.3 218.575 273.89C219.125 262.82 219.735 253.76 220.185 247.28C220.315 245.46 220.715 242.87 222.515 241.18C224.295 239.51 226.745 239.38 230.015 239.38H230.055C233.465 239.38 237.465 240.28 241.965 242.05C242.975 242.45 244.015 242.86 245.035 243.28C245.165 243.4 245.305 243.53 245.435 243.65L245.565 243.5C250.165 245.43 254.395 247.7 255.015 250.87C255.345 252.52 255.165 253.98 254.565 254.67C254.355 254.91 253.995 255.15 253.375 255.54C250.685 256.09 247.945 256.38 245.225 256.38H245.205C239.475 256.38 233.825 255.18 228.425 252.8L226.815 256.46C232.725 259.06 238.915 260.37 245.205 260.37L245.225 260.4ZM230.065 235.39C226.855 235.39 222.865 235.39 219.785 238.27C219.715 238.33 219.665 238.4 219.595 238.46V223.47C220.215 223.47 220.845 223.49 221.455 223.54C225.345 223.83 230.185 224.2 233.015 227.91C234.825 230.29 235.345 233.39 235.405 235.94C233.535 235.58 231.755 235.39 230.065 235.39ZM232.335 187.24C232.255 187.24 232.185 187.24 232.105 187.24C228.305 187.24 223.205 187.83 217.925 190.16C218.155 186.59 219.205 181.61 222.735 176.97C225.895 172.83 229.795 170.53 232.925 169.27C230.035 176.26 231.245 183.37 232.325 187.23L232.335 187.24ZM319.765 229.38C318.345 229 317.225 228.74 315.965 228.44C314.205 228.02 312.215 227.55 308.675 226.6C301.115 224.56 297.285 223.21 294.925 219.63C294.635 219.19 294.465 218.9 294.305 218.56C293.225 216.33 292.825 212.27 292.645 201.87C292.645 201.31 292.645 200.74 292.625 200.18C296.165 200.42 299.735 200.59 303.275 200.65C303.705 200.65 304.145 200.66 304.595 200.66C307.045 200.66 309.915 200.45 312.855 198.84C313.935 198.25 314.945 197.52 315.855 196.68L313.135 193.75C312.465 194.37 311.735 194.9 310.945 195.33C308.565 196.63 306.295 196.7 303.345 196.65C299.765 196.59 296.165 196.42 292.595 196.17C292.575 192.96 292.585 189.75 292.625 186.58C292.645 185.11 291.735 183.77 290.365 183.26C288.805 182.68 287.425 181.84 286.255 180.75C285.345 179.9 283.615 178.07 282.885 175.87C296.145 174.86 311.255 172.91 327.715 169.32C344.925 165.56 360.055 160.8 372.915 155.96C372.435 157.85 372.055 159.86 371.825 162.01C371.695 163.22 371.545 164.57 371.445 166C366.805 165.92 360.825 166.62 354.565 169.44C345.835 173.38 339.565 179.37 335.945 187.22C329.245 201.73 335.355 215.4 336.075 216.92C338.935 222.93 343.085 227.11 346.825 229.9C342.825 231.11 338.695 232.67 334.705 234.67C329.865 232.53 324.845 230.75 319.765 229.39V229.38ZM339.685 215.19C339.045 213.85 333.645 201.74 339.575 188.89C342.785 181.93 348.385 176.61 356.215 173.08C361.805 170.56 367.145 169.93 371.315 169.99C371.335 172.57 371.625 175.29 372.425 177.99C370.645 177.86 368.765 177.92 366.795 178.23C364.055 178.66 354.705 180.76 349.205 189.81C345.355 196.15 345.495 202.63 345.915 205.92C347.155 215.58 353.475 221.26 356.135 223.25C358.095 224.72 360.095 225.79 362.005 226.56C359.025 226.99 355.575 227.62 351.915 228.51C348.075 226.19 342.935 222.03 339.695 215.2L339.685 215.19ZM388.385 324.8C392.885 324.8 408.435 309.25 408.435 304.76H409.435C409.435 309.26 424.985 324.8 429.485 324.8V325.8C424.985 325.8 409.435 341.35 409.435 345.85H408.435C408.435 341.35 392.885 325.8 388.385 325.8V324.8ZM428.825 294.76L425.285 298.29L423.955 299.62L417.055 292.72C414.375 294.53 411.145 295.59 407.675 295.59C398.425 295.59 390.895 288.06 390.895 278.81V256.64C390.895 247.39 398.425 239.86 407.675 239.86C416.925 239.86 424.455 247.39 424.455 256.64V278.81C424.455 281.32 423.885 283.69 422.895 285.83L430.325 293.26L428.825 294.76ZM362.805 146.82C310.125 163.58 246.715 164.95 241.635 149.45C239.775 143.78 245.385 131.93 281.835 107.57C281.935 118.9 283.305 127.59 283.445 128.45L283.665 129.79L284.985 130.08C294.885 132.28 304.465 133.22 313.625 133.22C339.875 133.22 362.555 125.53 378.535 117.93C401.865 106.85 415.965 93.95 416.555 93.4L417.565 92.46L417.045 91.1799C416.675 90.2599 412.345 79.6599 404.895 68.0699C449.785 66.7199 461.455 73.21 463.235 78.98C468.045 94.56 415.475 130.06 362.795 146.81L362.805 146.82ZM268.495 94.2999C273.295 85.9799 280.175 81.39 284.985 79.02C282.875 86.82 282.045 95.16 281.865 102.74C274.905 107.33 268.775 111.63 263.485 115.65C263.175 110.27 263.845 102.37 268.495 94.2999ZM285.895 105.76C285.955 90.13 288.555 70.22 300.005 60.08C307.975 53.02 319.455 51.61 334.105 55.87L335.295 56.22L336.135 55.3099C346.465 44.0799 357.015 39.35 367.485 41.27C382.045 43.92 394.255 58.71 402.405 71.75C377.185 96.19 346.765 104.12 325.545 106.45C306.175 108.57 290.765 106.55 285.895 105.76ZM447.595 66.1799C436.985 64.1099 421.995 63.46 402.285 64.16C399.635 60.34 396.655 56.52 393.385 52.99C395.675 48.86 397.585 44.31 399.055 39.41C400.565 34.35 401.575 29.02 402.095 23.54H442.355C445.255 23.54 447.605 25.9 447.605 28.79V66.1699L447.595 66.1799ZM165.985 309.66C158.825 309.66 152.995 303.62 152.995 296.19V238.34C158.265 240.55 168.825 243.95 183.955 243.97H184.045C199.735 243.97 210.525 240.32 215.605 238.12V253.71C214.375 267.65 213.815 277.33 215.605 284.32V296.19C215.605 303.62 209.775 309.66 202.615 309.66H165.985ZM464.245 364.05C464.245 368.85 460.345 372.75 455.545 372.75H187.805C183.005 372.75 179.105 368.85 179.105 364.05V313.66H191.755V351.73C191.755 356.83 195.905 360.98 201.005 360.98H442.335C447.435 360.98 451.585 356.83 451.585 351.73V104.53C456.605 100.18 461.275 95.37 464.235 90.6V364.05H464.245ZM464.245 73.26C461.635 70.64 457.435 68.59 451.595 67.08V28.7999C451.595 23.6999 447.445 19.5499 442.345 19.5499H251.265C249.925 19.4899 248.445 19.4799 246.865 19.5499H201.015C195.915 19.5499 191.765 23.6999 191.765 28.7999V196.04C190.575 195.16 189.265 194.5 187.865 194.1C185.415 193.41 183.095 193.64 181.215 194.15C180.675 192.76 179.965 191.48 179.115 190.33V13.72C179.115 8.91997 183.015 5.02002 187.815 5.02002H455.555C460.355 5.02002 464.255 8.91997 464.255 13.72V73.26H464.245Z" fill="#252525"/>
<path d="M206.825 296.31L207.175 295.8V248.84H203.175V294.5C202.075 295.73 200.195 296.5 198.205 296.5C196.215 296.5 194.335 295.73 193.235 294.5V252.36H189.235V294.5C188.135 295.73 186.255 296.5 184.265 296.5C182.275 296.5 180.395 295.73 179.295 294.5V252.36H174.695V294.5C173.595 295.73 171.715 296.5 169.725 296.5C167.735 296.5 165.855 295.73 164.755 294.5V248.84H160.755V295.8L161.105 296.31C162.875 298.89 166.175 300.5 169.725 300.5C172.515 300.5 175.135 299.5 176.985 297.83C178.845 299.5 181.465 300.5 184.245 300.5C186.885 300.5 189.375 299.61 191.215 298.1C193.045 299.61 195.545 300.5 198.185 300.5C201.735 300.5 205.035 298.89 206.805 296.31H206.825Z" fill="#252525"/>
<path d="M0 578.87V415.38H36.21L31.96 435.2H19.8101V486.39H33.49V506.21H19.8101V559.17H31.96L36.21 578.87H0Z" fill="#252525"/>
<path d="M70.0698 562V436.97C70.0698 434.97 68.8899 433.79 66.4099 433.31C64.3999 433.31 63.3399 434.49 63.1099 436.97V578.87H43.29V432.37C43.29 418.57 54.9699 413.73 66.4099 413.73C74.7799 413.73 89.8799 416.44 89.8799 432.37V557.4C89.8799 559.4 91.06 560.58 93.54 561.06C95.55 561.06 96.6098 559.88 96.8398 557.4V415.38H116.66V562C116.66 575.8 104.98 580.64 93.54 580.64C85.17 580.64 70.0698 577.93 70.0698 562Z" fill="#252525"/>
<path d="M127.28 562V432.37C127.28 418.57 138.96 413.73 150.4 413.73C158.77 413.73 173.87 416.44 173.87 432.37V447.23L154.05 453.84V436.97C154.05 434.97 152.87 433.79 150.39 433.31C148.38 433.31 147.32 434.49 147.09 436.97V557.4C147.09 559.17 148.15 561.06 150.39 561.06C152.4 561.06 153.57 559.88 154.05 557.4V540.53L173.87 547.14V562C173.87 575.92 161.84 580.64 150.4 580.64C137.66 580.64 127.28 574.98 127.28 562Z" fill="#252525"/>
<path d="M210.2 578.87L207.72 529.56C207.6 527.55 206.54 526.38 204.65 526.02H200.76V578.86H180.94V415.37H204.06C212.43 415.37 227.53 418.08 227.53 434.01V507.14C227.53 511.39 226.47 514.92 224.23 517.87C226.35 520.58 227.42 523.65 227.53 527.07L230.01 578.85H210.19L210.2 578.87ZM207.72 502.55V438.62C207.72 436.62 206.54 435.44 204.06 435.2H200.76V506.21H204.06C206.07 506.21 207.36 505.03 207.72 502.55Z" fill="#252525"/>
<path d="M238.27 562V415.38H258.09V557.4C258.09 559.17 259.15 561.06 261.39 561.06C263.4 561.06 264.58 559.88 265.05 557.4V415.38H284.87V562C284.87 575.92 272.84 580.64 261.4 580.64C248.66 580.64 238.28 574.98 238.28 562H238.27Z" fill="#252525"/>
<path d="M351.51 578.87V415.38H371.33V578.87H351.51Z" fill="#252525"/>
<path d="M346.5 496.02C327.81 503.05 309.12 510.08 290.43 517.11C290.64 508.82 290.86 500.53 291.07 492.25C309.74 486.08 328.41 479.9 347.08 473.73C346.89 481.16 346.7 488.6 346.51 496.03L346.5 496.02Z" fill="#252525"/>
<path d="M383.13 578.87V415.38H402.95V559.17H415.1L419.35 578.87H383.14H383.13Z" fill="#252525"/>
<path d="M452.01 578.87V506.33H445.05V578.87H425.23V415.38H445.05V486.51H452.01V415.38H471.83V578.87H452.01Z" fill="#252525"/>
<path d="M497.775 456.96C498.745 457.45 501.165 458.42 504.085 457.65C506.745 456.95 508.335 455.17 508.925 454.38L527.475 424.73C524.265 417.57 516.255 413.73 505.555 413.73C491.515 413.73 482.435 420.45 482.435 432.37V447.36L497.775 456.96Z" fill="#252525"/>
<path d="M518.195 466.42C518.775 469.33 520.625 471.11 521.475 471.8L529.025 476.52V444.48L518.915 460.63C518.395 461.71 517.665 463.83 518.185 466.42H518.195Z" fill="#252525"/>
<path d="M515.105 481.7C514.835 481.48 512.335 479.56 509.065 480.28C505.745 481.01 504.295 483.88 504.145 484.21L504.035 484.41L482.435 518.93V578.87H502.255V506.21H509.215V578.87H529.035V490.42L515.115 481.7H515.105Z" fill="#252525"/>
<path d="M491.345 466.85L482.435 461.27V496.71L493.985 478.25C494.515 477.21 495.285 475.17 494.875 472.66C494.355 469.47 492.275 467.56 491.335 466.84L491.345 466.85Z" fill="#252525"/>
<path d="M539.66 578.87V415.38H562.78C571.15 415.38 586.25 418.09 586.25 434.02V560C586.25 574.15 574.34 578.87 562.78 578.87H539.66ZM566.43 555.4V438.62C566.43 436.62 565.25 435.44 562.77 435.2H559.47V559.17H562.77C564.78 559.17 566.07 557.87 566.43 555.39V555.4Z" fill="#252525"/>
<path d="M623.64 578.87V506.21H616.68V578.87H596.86V432.37C596.86 420.46 605.94 413.73 619.98 413.73C634.02 413.73 643.45 420.34 643.45 432.37V578.87H623.63H623.64ZM623.64 436.97C623.64 434.97 622.46 433.79 619.98 433.31C617.98 433.31 616.91 434.49 616.68 436.97V486.39H623.64V436.97Z" fill="#252525"/>
<path d="M341.75 416.51V435.2C333.7 475.03 325.65 514.85 317.6 554.68C325.24 554.78 332.88 554.88 340.53 554.99C340.94 562.03 341.34 569.06 341.75 576.1H293.79V555.6C302.63 515.47 311.48 475.34 320.32 435.21H293.79V416.52H341.75V416.51Z" fill="#252525"/>
<path d="M269.91 630.06V604.64H277.38C279.61 604.64 281.39 605.17 282.73 606.24C284.06 607.31 284.73 608.72 284.73 610.48C284.73 611.88 284.33 613.12 283.54 614.19C282.75 615.26 281.66 616.02 280.27 616.47V616.54C282 616.74 283.38 617.39 284.41 618.5C285.44 619.61 285.96 621.02 285.96 622.73C285.96 624.92 285.17 626.69 283.6 628.04C282.03 629.39 280.02 630.07 277.57 630.07H269.91V630.06ZM273.19 607.52V615.48H276.18C277.77 615.48 279.01 615.09 279.91 614.32C280.81 613.55 281.26 612.48 281.26 611.11C281.26 608.71 279.66 607.52 276.47 607.52H273.19ZM273.19 618.33V627.19H277.13C278.85 627.19 280.17 626.79 281.11 626C282.04 625.21 282.51 624.1 282.51 622.69C282.51 619.78 280.54 618.33 276.59 618.33H273.19Z" fill="#252525"/>
<path d="M331.12 630.06H327.49L324.9 623.1H314.32L311.88 630.06H308.25L317.93 604.64H321.44L331.12 630.06ZM323.88 620.23L320.04 609.66C319.92 609.32 319.79 608.73 319.65 607.89H319.57C319.45 608.66 319.31 609.25 319.16 609.66L315.35 620.23H323.88Z" fill="#252525"/>
<path d="M373.52 630.06H369.65L365.43 623C364.59 621.59 363.82 620.63 363.12 620.12C362.42 619.61 361.58 619.36 360.61 619.36H358.25V630.06H354.97V604.64H362.72C365.19 604.64 367.13 605.24 368.53 606.43C369.93 607.62 370.63 609.29 370.63 611.43C370.63 614.95 368.75 617.24 364.99 618.29V618.37C365.69 618.67 366.29 619.09 366.8 619.63C367.31 620.17 367.97 621.11 368.78 622.44L373.54 630.05L373.52 630.06ZM358.24 607.52V616.5H362.11C363.61 616.5 364.83 616.06 365.76 615.19C366.7 614.31 367.16 613.17 367.16 611.74C367.16 610.42 366.73 609.38 365.88 608.64C365.03 607.9 363.79 607.52 362.16 607.52H358.24Z" fill="#252525"/>
</svg>
