<svg width="382" height="382" viewBox="0 0 382 382" fill="none" xmlns="http://www.w3.org/2000/svg">
<path d="M322.234 230.63L325.114 219.122L344.548 223.987L341.777 235.035L338.389 234.188L340.119 227.278L335.545 226.129L333.936 232.554L330.559 231.707L332.169 225.282L327.462 224.108L325.622 231.465L322.234 230.618V230.63Z" fill="#252525"/>
<path d="M307.58 263.303L309.637 259.442L325.066 258.075C325.864 258.002 326.494 257.978 326.954 258.002L326.99 257.942C326.348 257.688 325.392 257.216 324.122 256.538L314.078 251.165L315.99 247.596L333.645 257.046L331.455 261.149L316.498 262.407C315.506 262.492 314.877 262.54 314.623 262.54L314.586 262.601C315.058 262.746 315.893 263.145 317.091 263.799L327.159 269.184L325.247 272.753L307.592 263.303H307.58Z" fill="#252525"/>
<path d="M286.972 289.973C287.432 288.412 288.461 286.778 290.046 285.048C292.091 282.833 294.378 281.672 296.907 281.599C299.436 281.514 301.808 282.495 304.022 284.528C306.345 286.669 307.592 289.15 307.725 291.97C307.858 294.789 306.878 297.354 304.76 299.654C303.429 301.094 302.135 302.122 300.876 302.751L297.839 299.956C299.339 299.496 300.67 298.637 301.832 297.379C303.163 295.939 303.756 294.366 303.635 292.659C303.514 290.953 302.703 289.416 301.215 288.049C299.763 286.718 298.226 286.052 296.592 286.064C294.959 286.064 293.494 286.766 292.212 288.17C291.002 289.489 290.215 290.965 289.864 292.635L286.984 289.985L286.972 289.973Z" fill="#252525"/>
<path d="M258.62 310.435L262.722 307.725L268.216 310.339C269.353 310.883 270.176 311.161 270.684 311.198C271.205 311.234 271.652 311.113 272.04 310.859L273.117 310.145L268.833 303.671L272.391 301.311L283.451 318.01L277.594 321.883C273.613 324.509 270.636 324.315 268.627 321.302C267.877 320.164 267.562 318.966 267.695 317.72C267.828 316.462 268.361 315.288 269.305 314.187L269.281 314.138C268.337 314.392 266.921 314.102 265.045 313.279L258.62 310.411V310.435ZM278.114 317.672L274.932 312.868L273.189 314.029C272.354 314.586 271.846 315.264 271.664 316.086C271.483 316.909 271.628 317.684 272.1 318.41C273.105 319.922 274.496 320.08 276.311 318.882L278.126 317.684L278.114 317.672Z" fill="#252525"/>
<path d="M231.091 331.116C229.13 325.477 230.776 321.738 236.016 319.922C241.086 318.168 244.571 320.031 246.471 325.525L250.295 336.537L246.253 337.941L242.417 326.905C241.328 323.758 239.537 322.609 237.044 323.468C234.6 324.315 233.91 326.263 234.963 329.301L238.847 340.506L234.818 341.91L231.067 331.116H231.091Z" fill="#252525"/>
<path d="M196.833 345.709L205.763 330.632L195.574 331.551L195.26 328.078L211.209 326.651L211.426 329.022L202.315 344.064L211.923 343.205L212.237 346.677L197.051 348.045L196.845 345.734L196.833 345.709Z" fill="#252525"/>
<path d="M170.804 346.653L173.103 326.759L177.339 327.243L175.039 347.137L170.804 346.653Z" fill="#252525"/>
<path d="M142.682 319.293L153.875 322.887L147.74 341.958L143.674 340.651L148.733 324.908L141.605 322.621L142.67 319.293H142.682Z" fill="#252525"/>
<path d="M112.127 303.199L115.757 305.438L111.425 312.48L118.698 316.946L123.03 309.903L126.66 312.142L116.168 329.204L112.538 326.965L116.773 320.08L109.501 315.615L105.266 322.5L101.635 320.261L112.127 303.199Z" fill="#252525"/>
<path d="M85.1056 278.332L88.3123 281.708L86.0253 285.955L91.0471 291.219L95.3914 289.126L98.5859 292.478L79.031 300.997L75.5703 297.366L85.1056 278.344V278.332ZM84.3313 288.968L80.8825 295.406C80.6646 295.818 80.3136 296.289 79.8295 296.834L79.9022 296.919C80.3621 296.556 80.8581 296.241 81.3664 295.999L88.0097 292.829L84.3192 288.956L84.3313 288.968Z" fill="#252525"/>
<path d="M75.0616 264.283L57.5154 273.939L54.1755 267.877C50.751 261.645 51.8886 256.962 57.5881 253.828C60.2987 252.339 62.9609 252.012 65.5626 252.847C68.1643 253.682 70.2213 255.485 71.746 258.244L75.0737 264.283H75.0616ZM58.5077 268.518L69.943 262.226L68.8177 260.181C67.8375 258.402 66.5428 257.301 64.9334 256.877C63.324 256.441 61.6056 256.732 59.8026 257.724C58.0601 258.68 56.9829 259.963 56.5957 261.56C56.1964 263.157 56.4628 264.803 57.3946 266.497L58.5077 268.53V268.518Z" fill="#252525"/>
<path d="M55.9789 215.468L57.1287 219.982L53.0506 222.571L54.8536 229.626L59.6697 229.916L60.8192 234.406L39.5943 232.252L38.3481 227.387L55.9789 215.468ZM50.1101 224.35L43.9507 228.271C43.5635 228.525 43.0188 228.767 42.3412 229.009L42.3654 229.118C42.9463 229.021 43.5273 228.997 44.0961 229.033L51.4411 229.517L50.1223 224.338L50.1101 224.35Z" fill="#252525"/>
<path d="M59.7783 151.382L56.8981 162.89L37.4644 158.025L40.2352 146.977L43.6235 147.824L41.8932 154.734L46.4673 155.883L48.0765 149.458L51.4527 150.305L49.8435 156.73L54.5506 157.904L56.39 150.535L59.7783 151.382Z" fill="#252525"/>
<path d="M74.432 118.697L72.3628 122.545L56.9342 123.913C56.1355 123.985 55.5062 124.009 55.0464 123.985L55.0222 124.046C55.6635 124.3 56.6196 124.772 57.8902 125.449L67.934 130.822L66.022 134.392L48.3667 124.941L50.557 120.839L65.5138 119.58C66.5061 119.496 67.1354 119.459 67.3895 119.447L67.4255 119.387C66.9536 119.23 66.131 118.842 64.9209 118.189L54.8529 112.804L56.7649 109.234L74.4199 118.685L74.432 118.697Z" fill="#252525"/>
<path d="M95.0397 92.0391C94.5799 93.6001 93.5513 95.2337 91.966 96.9642C89.921 99.1907 87.634 100.34 85.1049 100.413C82.5759 100.498 80.2042 99.5175 77.9898 97.4845C75.6664 95.3427 74.42 92.862 74.2869 90.0425C74.1416 87.223 75.1339 84.6576 77.2515 82.3584C78.5705 80.9184 79.8773 79.8899 81.1358 79.2606L84.1732 82.0559C82.6727 82.5158 81.3415 83.3749 80.1798 84.6334C78.8487 86.0734 78.2558 87.6465 78.3768 89.3527C78.4978 91.059 79.3086 92.5958 80.797 93.9632C82.2491 95.2943 83.786 95.9598 85.4196 95.9477C87.0532 95.9477 88.5175 95.2459 89.8002 93.8422C91.0103 92.5353 91.7968 91.0469 92.1477 89.3769L95.0276 92.027L95.0397 92.0391Z" fill="#252525"/>
<path d="M123.392 71.5644L119.29 74.275L113.796 71.6612C112.659 71.1166 111.836 70.8383 111.328 70.802C110.807 70.7657 110.36 70.8867 109.973 71.1408L108.895 71.8548L113.179 78.3287L109.622 80.6884L98.5615 63.9892L104.418 60.117C108.399 57.479 111.376 57.6847 113.385 60.6978C114.135 61.8353 114.45 63.0333 114.317 64.2797C114.196 65.5381 113.651 66.7119 112.707 67.8131L112.732 67.8615C113.675 67.6074 115.091 67.8978 116.967 68.7207L123.392 71.5886V71.5644ZM103.898 64.3402L107.08 69.1442L108.823 67.9825C109.658 67.4259 110.166 66.7482 110.348 65.9254C110.529 65.1025 110.384 64.3281 109.9 63.602C108.896 62.0894 107.504 61.9321 105.689 63.1301L103.874 64.3281L103.898 64.3402Z" fill="#252525"/>
<path d="M150.922 50.896C152.882 56.535 151.236 60.2742 145.997 62.0893C140.926 63.8439 137.441 61.9804 135.529 56.4866L131.706 45.4748L135.747 44.0711L139.583 55.1071C140.672 58.2533 142.463 59.4029 144.956 58.5438C147.4 57.6967 148.09 55.7485 147.037 52.7111L143.153 41.5057L147.183 40.1021L150.934 50.896H150.922Z" fill="#252525"/>
<path d="M185.179 36.3025L176.249 51.3802L186.438 50.4605L186.752 53.9335L170.804 55.3614L170.586 52.9896L179.698 37.9482L170.09 38.8074L169.775 35.3344L184.962 33.967L185.167 36.2783L185.179 36.3025Z" fill="#252525"/>
<path d="M211.208 35.3465L208.909 55.2524L204.673 54.7562L206.972 34.8624L211.208 35.3465Z" fill="#252525"/>
<path d="M239.33 62.7187L228.137 59.1248L234.272 40.0538L238.338 41.3607L233.28 57.1039L240.408 59.391L239.343 62.7187H239.33Z" fill="#252525"/>
<path d="M269.873 78.8127L266.243 76.5741L270.575 69.5314L263.302 65.0661L258.97 72.1088L255.34 69.8702L265.831 52.808L269.462 55.0466L265.226 61.932L272.499 66.3972L276.734 59.5118L280.365 61.7505L269.873 78.8127Z" fill="#252525"/>
<path d="M296.906 103.668L293.7 100.304L295.987 96.0444L290.965 90.7805L286.621 92.8861L283.426 89.5341L302.981 81.0151L306.442 84.6454L296.906 103.668ZM297.681 93.0434L301.142 86.6057C301.359 86.1943 301.71 85.7224 302.194 85.1778L302.11 85.0931C301.65 85.4561 301.154 85.7708 300.646 86.0128L294.002 89.1832L297.681 93.0434Z" fill="#252525"/>
<path d="M306.95 117.729L324.496 108.073L327.836 114.135C331.261 120.367 330.135 125.05 324.424 128.184C321.713 129.673 319.051 129.999 316.449 129.164C313.847 128.317 311.79 126.526 310.266 123.767L306.938 117.729H306.95ZM323.492 113.494L312.057 119.786L313.182 121.819C314.162 123.598 315.457 124.699 317.066 125.123C318.676 125.558 320.394 125.268 322.197 124.276C323.94 123.32 325.017 122.037 325.404 120.44C325.803 118.842 325.537 117.197 324.605 115.515L323.492 113.482V113.494Z" fill="#252525"/>
<path d="M326.033 166.544L324.883 162.03L328.961 159.441L327.158 152.386L322.342 152.096L321.192 147.606L342.417 149.76L343.663 154.625L326.033 166.544ZM331.901 157.65L338.073 153.729C338.46 153.475 339.005 153.233 339.683 152.991L339.658 152.882C339.077 152.979 338.496 153.003 337.928 152.967L330.583 152.483L331.901 157.662V157.65Z" fill="#252525"/>
<path d="M191 382C85.6863 382 0 296.314 0 191C0 85.6861 85.6863 0 191 0C296.314 0 382 85.6861 382 191C382 296.314 296.314 382 191 382ZM191 4.84034C88.3484 4.84034 4.84034 88.3483 4.84034 191C4.84034 293.651 88.3484 377.159 191 377.159C293.652 377.159 377.16 293.651 377.16 191C377.16 88.3483 293.652 4.84034 191 4.84034Z" fill="#252525"/>
<path d="M294.499 170.38C291.437 160.445 272.85 156.416 236.064 157.686C228.44 146.795 217.913 135.929 205.291 133.63C194.727 131.706 184.32 136.014 174.313 146.445C160.349 142.693 149.216 144.4 141.169 151.515C130.435 161.014 127.471 178.306 127.071 192.609C96.928 212.527 84.3554 226.383 87.5621 236.185C90.4421 244.982 106.004 248.842 126.563 248.842C148.938 248.842 177.242 244.268 201.588 236.535C248.322 221.676 300.174 188.858 294.475 170.392L294.499 170.38ZM144.388 155.121C151.37 148.937 161.474 147.715 174.398 151.479L175.838 151.902L176.854 150.801C185.966 140.89 195.236 136.715 204.42 138.385C217.126 140.697 227.835 153.536 235.071 165.031C196.01 202.532 142.693 196.748 131.912 195.114C132.021 181.307 134.38 163.979 144.376 155.133L144.388 155.121ZM200.136 231.901C150.281 247.753 96.178 246.882 92.1726 234.66C90.8778 230.691 93.8423 220.78 127.047 198.418C127.216 208.074 128.354 215.359 128.475 216.097L128.741 217.719L130.339 218.07C139.209 220.042 147.824 220.901 156.101 220.901C209.405 220.901 248.54 185.421 248.987 185.01L250.21 183.873L249.58 182.324C249.254 181.513 245.563 172.498 239.198 162.406C280.268 161.292 288.606 167.742 289.852 171.784C293.64 184.066 249.98 216.024 200.124 231.889L200.136 231.901Z" fill="#252525"/>
<path d="M99.5897 195.84V195.792L103.898 195.84C104.249 193.263 113.833 183.679 116.362 183.328L116.41 179.02C113.833 178.669 104.249 169.085 103.898 166.556L99.5897 166.508C99.2509 169.085 89.6549 178.669 87.1258 179.02L87.0776 183.328C89.6551 183.667 99.2388 193.263 99.5897 195.84ZM101.744 171.348C104.14 174.785 108.133 178.778 111.57 181.174C108.133 183.57 104.14 187.563 101.744 191C99.3477 187.563 95.3546 183.57 91.918 181.174C95.3546 178.778 99.3477 174.785 101.744 171.348Z" fill="#252525"/>
</svg>
