<svg width="399" height="377" viewBox="0 0 399 377" fill="none" xmlns="http://www.w3.org/2000/svg">
<path d="M24.0864 168.606H28.3898C28.3898 163.654 47.5245 144.519 52.4762 144.519V140.216C47.5245 140.216 28.3898 121.081 28.3898 116.129H24.0864C24.0864 121.081 4.95169 140.216 0 140.216V144.519C4.95169 144.519 24.0864 163.654 24.0864 168.606ZM26.2322 123.911C30.0049 130.065 38.5406 138.601 44.6948 142.373C38.5406 146.146 30.0049 154.682 26.2322 160.836C22.4595 154.682 13.9238 146.146 7.76955 142.373C13.9238 138.601 22.4595 130.065 26.2322 123.911Z" fill="#252525"/>
<path d="M46.4042 118.617V118.57L51.1201 118.617C51.4974 115.799 61.9783 105.318 64.7489 104.941L64.7961 100.225C61.9783 99.8477 51.4974 89.3666 51.1201 86.596L46.4042 86.5488C46.027 89.3666 35.5458 99.8477 32.7752 100.225L32.728 104.941C35.5458 105.318 46.027 115.799 46.4042 118.617ZM48.7504 91.8306C51.3795 95.5798 55.7416 99.9538 59.4907 102.571C55.7416 105.2 51.3677 109.562 48.7504 113.312C46.1213 109.562 41.7589 105.188 38.0098 102.571C41.7589 99.942 46.1331 95.5798 48.7504 91.8306Z" fill="#252525"/>
<path d="M71.7167 145.745C74.7939 142.067 77.8474 139.638 79.4037 138.412C80.5237 137.528 83.6715 135.441 89.92 131.303C92.7142 129.452 94.0817 128.497 95.9798 127.306C99.5285 125.066 103.95 122.284 110.222 117.58C116.977 112.522 118.758 110.565 120.184 108.101C124.028 101.498 123.108 94.5424 122.059 86.5018C121.234 80.1942 120.043 76.4097 118.993 73.085C118.993 73.085 118.993 73.085 118.993 73.0732C117.673 74.1697 116.376 75.3015 115.091 76.4333C115.917 79.1567 116.754 82.3871 117.378 87.1266C118.404 94.9079 119.135 100.532 116.105 105.743C115.15 107.393 114.018 108.843 107.393 113.819C101.274 118.405 96.9467 121.14 93.4688 123.321C93.4688 123.321 90.4976 125.255 87.1611 127.483C74.3457 136.042 70.5496 140.086 69.123 141.69C66.5175 148.198 64.3127 154.906 62.4971 161.768C62.6032 161.543 62.7093 161.331 62.8154 161.107C66.6117 153.42 68.5807 149.494 71.7285 145.733L71.7167 145.745Z" fill="#252525"/>
<path d="M99.5758 314.126C105.376 320.505 112.851 327.755 122.024 334.888C122.436 332.966 122.424 329.653 124.9 324.761C126.067 322.462 128.755 317.876 133.825 314.103C135.594 312.782 137.22 311.886 138.435 311.297C138.847 311.108 139.26 310.931 139.673 310.766C141.441 311.474 143.469 312.004 145.627 312.004C146.346 312.004 147.089 311.945 147.843 311.816C149.128 311.592 151.793 311.144 154.269 309.222C154.469 309.069 154.658 308.915 154.834 308.774C155.094 308.644 155.247 308.538 155.235 308.479C155.235 308.479 155.224 308.479 155.212 308.467C158.501 305.779 158.371 304.989 158.23 304.152L156.65 302.313C155.495 301.936 154.658 302.525 154.257 302.879C154.257 302.879 154.233 302.903 154.221 302.914C154.174 302.961 154.127 302.997 154.092 303.032C153.549 303.551 151.993 305.013 151.38 305.496C149.836 306.699 148.091 306.994 147.041 307.17C143.622 307.76 140.227 306.003 138.246 304.695C139.85 301.948 140.026 298.493 138.753 294.379C140.628 293.046 142.95 290.83 144.424 287.34C146.098 283.391 145.863 279.736 145.45 277.519C145.544 277.295 145.603 277.059 145.674 276.835C149.482 282.07 156.202 287.588 167.992 292.032L169.654 287.623C142.043 277.201 145.745 261.249 145.921 260.577H145.898C146.122 260.377 146.334 260.165 146.534 259.929C148.869 257.264 148.539 253.456 148.138 251.44C146.983 245.557 140.84 242.115 134.332 239.368C130.276 235.489 123.037 227.047 123.261 216.189C123.391 209.764 124.853 206.875 125.737 206.569C127.305 206.038 132.764 210.188 140.71 223.64L140.982 224.006C143.469 226.812 146.228 229.346 149.175 231.563C150.72 232.718 152.335 233.803 153.997 234.793C171.175 246.831 174.818 259.292 174.853 259.41C178.461 265.623 182.069 271.837 185.676 278.062C187.681 277.46 190.357 276.883 193.54 276.753C197.442 276.6 200.696 277.201 202.972 277.802C202.253 275.161 198.398 260.082 207.381 246.123C212.369 238.389 219.053 234.463 222.555 232.742C224.488 233.319 226.504 233.968 228.591 234.722C229.841 235.182 231.055 235.642 232.222 236.114C230.194 237.411 228.261 238.825 226.445 240.393C224.936 241.702 219.725 246.465 216.059 252.784C208.207 266.354 210.671 282.047 212.097 288.165L213.441 293.919L208.041 291.537C195.603 286.043 181.397 288.118 172.696 296.689C164.726 304.541 164.078 314.881 164.172 318.96L164.243 322.356L160.871 321.943C151.309 320.788 143.658 322.591 138.14 327.331C133.601 331.222 131.219 336.456 129.946 340.736C142.349 349.295 157.322 357.265 175.03 362.806C175.254 362.865 200.591 370.363 225.019 370.363C317.71 370.363 393.105 294.956 393.105 202.277C393.105 163.901 379.535 126.245 354.883 96.2519L359.434 92.5027C359.658 92.7857 359.882 93.0687 360.117 93.3516C362.381 91.3238 367.816 86.4664 375.244 79.817C377.837 77.6712 380.667 74.9832 383.615 71.7881C386.161 69.0293 388.413 66.1998 390.169 63.3939C391.042 62.1559 394.237 57.2986 393.365 50.8142C392.858 47.0415 391.183 44.3298 390.169 42.9386C387.092 39.8497 382.141 37.4328 375.256 35.6526C373.688 35.2989 372.108 34.9452 370.54 34.5915C358.031 32.151 340.358 31.3847 317.12 32.21C313.996 27.7063 310.483 23.2026 306.627 19.0408C305.472 17.8619 304.329 16.6947 303.173 15.5157C295.545 8.13531 286.726 2.35834 276.941 0.566295C273.675 -0.0349822 270.669 0.000392058 270.232 0.000392058C261.532 0.000392058 254.753 2.7474 250.886 4.71629C248.563 5.88348 245.91 7.42793 243.151 9.45576C239.614 12.0495 236.868 14.714 234.781 17.0366C232.942 16.4471 210.022 9.14923 193.399 23.8628C190.428 26.4919 187.928 29.5809 185.818 32.9999C185.9 32.9763 185.995 32.9527 186.077 32.9292L187.457 38.659C185.688 39.0834 183.943 39.555 182.198 40.0266C181.668 41.2527 181.161 42.4906 180.713 43.7521C174.936 45.9804 163.04 51.9696 155.306 65.3745C148.256 77.6123 148.22 89.5553 149.057 96.3462C128.496 112.675 120.208 124.96 123.238 134.215C124.334 137.575 126.834 140.239 130.241 142.362C127.105 143.989 123.745 146.441 120.927 150.119C116.718 151.062 108.1 153.927 101.686 162.345C95.8149 170.044 94.8718 178.226 94.9779 183.284C92.6671 184.286 88.6469 186.42 85.3576 190.711C83.8956 192.621 82.9288 194.496 82.2803 196.064H75.1593C75.0767 195.486 73.992 188.778 67.7081 185.712C63.8292 183.814 60.1155 184.357 58.0405 184.923C57.9816 185.43 57.8992 185.936 57.8402 186.443L51.9807 185.783C52.2165 183.661 52.5112 181.551 52.8296 179.452C50.283 176.67 46.9109 174.819 43.2207 174.335C35.6282 173.357 27.8587 178.379 25.2414 186.55C22.9424 185.335 19.83 184.321 16.1987 184.663C8.18171 185.43 1.40278 192.621 0.754346 201.016C0.259177 207.535 3.65462 212.416 5.47024 214.527C5.26982 222.037 5.48179 229.476 6.10665 236.644C6.57824 241.997 7.26229 246.677 11.0704 249.731C13.0628 251.334 15.5502 252.183 18.4623 252.277V305.756C18.4623 317.109 27.4463 326.352 38.4933 326.352H68.887C72.141 326.317 74.9707 326.282 77.3051 326.246C85.5579 326.128 87.2673 326.093 89.8729 325.279C93.6692 324.101 96.1215 322.308 96.9939 321.636C97.3004 321.401 97.5479 321.141 97.7719 320.882C96.8877 319.939 96.0271 319.019 95.2018 318.111L99.564 314.15L99.5758 314.126ZM237.434 233.19C231.727 230.667 225.809 228.568 219.819 226.965C218.145 226.517 216.825 226.21 215.34 225.857C213.265 225.361 210.918 224.807 206.745 223.687C197.832 221.282 193.316 219.691 190.534 215.47C190.192 214.951 189.991 214.609 189.803 214.208C188.529 211.579 188.058 206.793 187.846 194.531C187.846 193.871 187.846 193.199 187.822 192.539C191.996 192.822 196.205 193.022 200.378 193.093C200.885 193.093 201.404 193.105 201.934 193.105C204.823 193.105 208.207 192.857 211.673 190.959C212.946 190.263 214.137 189.403 215.21 188.412L212.003 184.958C211.213 185.689 210.352 186.314 209.421 186.821C206.615 188.353 203.939 188.436 200.461 188.377C196.24 188.306 191.996 188.106 187.787 187.811C187.763 184.027 187.775 180.242 187.822 176.505C187.846 174.772 186.773 173.192 185.158 172.59C183.318 171.907 181.691 170.916 180.312 169.631C179.239 168.629 177.2 166.472 176.339 163.878C191.972 162.687 209.787 160.388 229.192 156.156C249.483 151.723 267.32 146.111 282.482 140.404C281.916 142.633 281.468 145.002 281.197 147.537C281.044 148.964 280.867 150.555 280.749 152.241C275.279 152.147 268.228 152.972 260.848 156.297C250.555 160.942 243.163 168.004 238.895 177.259C230.996 194.366 238.2 210.483 239.049 212.275C242.42 219.36 247.313 224.289 251.723 227.578C247.007 229.004 242.138 230.844 237.434 233.202V233.19ZM257.712 225.939C253.185 223.204 247.125 218.299 243.305 210.247C242.55 208.667 236.184 194.39 243.175 179.24C246.959 171.034 253.562 164.762 262.793 160.6C269.384 157.629 275.679 156.887 280.596 156.957C280.619 159.999 280.961 163.206 281.904 166.389C279.806 166.236 277.589 166.307 275.267 166.672C272.036 167.179 261.013 169.655 254.529 180.325C249.99 187.799 250.155 195.439 250.65 199.318C252.112 210.707 259.563 217.403 262.699 219.749C265.01 221.483 267.367 222.744 269.619 223.652C266.106 224.159 262.039 224.902 257.724 225.951L257.712 225.939ZM281.209 201.346C277.129 209.363 277.224 216.943 277.648 220.952C274.3 220.469 269.82 219.184 265.528 215.965C263.453 214.409 256.592 208.573 255.318 198.693C254.894 195.415 254.753 188.99 258.549 182.753C264.114 173.593 274.052 171.612 275.986 171.305C278.851 170.857 281.527 170.987 283.991 171.423C284.663 172.638 285.441 173.84 286.373 174.996C291.136 180.914 297.479 183.248 300.803 184.203C298.257 185.123 287.28 189.391 281.197 201.346H281.209ZM196.523 27.3644C205.919 19.0408 219.454 17.3785 236.726 22.4009L238.129 22.8135L239.119 21.7407C251.298 8.50079 263.736 2.92425 276.08 5.18788C293.246 8.31217 307.641 25.7492 317.25 41.123C287.516 69.9372 251.652 79.2864 226.634 82.0334C203.797 84.5329 185.629 82.1513 179.888 81.2199C179.958 62.7926 183.024 39.3192 196.523 27.3644ZM159.373 67.7207C165.032 57.9116 173.144 52.5001 178.815 49.706C176.327 58.902 175.349 68.7346 175.136 77.6712C166.931 83.0827 159.703 88.1523 153.467 92.8918C153.101 86.5489 153.891 77.235 159.373 67.7207ZM127.706 132.741C125.513 126.056 132.127 112.086 175.101 83.3657C175.219 96.7235 176.834 106.969 176.999 107.983L177.259 109.563L178.815 109.904C190.486 112.498 201.781 113.606 212.581 113.606C243.529 113.606 270.268 104.54 289.108 95.5799C316.613 82.5168 333.237 67.3081 333.932 66.6596L335.123 65.5514L334.51 64.0423C334.074 62.9576 328.969 50.4605 320.186 36.7962C373.11 35.2046 386.868 42.8561 388.967 49.6588C394.638 68.0272 332.659 109.881 270.551 129.629C208.442 149.388 133.684 151.003 127.694 132.729L127.706 132.741ZM128.107 241.926C129.298 242.398 130.524 242.881 131.726 243.376C131.88 243.518 132.045 243.671 132.198 243.812L132.351 243.635C137.775 245.911 142.762 248.587 143.493 252.325C143.882 254.27 143.669 255.991 142.962 256.805C142.715 257.088 142.29 257.371 141.559 257.83C138.388 258.479 135.157 258.821 131.95 258.821H131.927C125.172 258.821 118.51 257.406 112.144 254.6L110.246 258.915C117.213 261.98 124.511 263.525 131.927 263.525H131.95C133.412 263.525 134.875 263.442 136.348 263.313L136.938 263.82C137.822 264.562 142.184 268.535 141.63 273.499C141.583 273.947 141.488 274.383 141.37 274.819C137.963 275.562 134.497 275.963 131.043 275.963H131.031C124.276 275.963 117.614 274.548 111.248 271.742L109.35 276.057C116.317 279.123 123.615 280.667 131.031 280.667H131.043C134.356 280.667 137.692 280.325 140.97 279.7C141.099 281.257 140.97 283.296 140.062 285.454C138.73 288.59 136.419 290.288 135.169 291.03C130.89 291.502 126.563 291.502 122.306 290.995C118.239 290.512 114.219 289.58 110.34 288.236L108.784 292.693C112.981 294.155 117.343 295.157 121.741 295.687C124.134 295.97 126.539 296.112 128.944 296.112C130.713 296.112 132.493 296.006 134.25 295.852C135.157 298.835 135.039 301.158 133.86 302.737C131.444 306.003 124.877 306.227 122.625 306.05C115.799 305.296 110.293 302.95 106.273 299.083C104.103 296.996 102.629 294.355 101.698 291.042C101.226 289.616 100.755 287.835 100.507 285.725C100.212 283.249 100.307 281.092 100.507 279.429C101.156 266.378 101.875 255.696 102.406 248.057C102.559 245.911 103.03 242.857 105.152 240.865C107.251 238.896 110.139 238.743 113.995 238.743H114.042C118.062 238.743 122.778 239.804 128.084 241.891L128.107 241.926ZM120.361 234.699C118.157 234.274 116.058 234.05 114.065 234.05C110.281 234.05 105.577 234.05 101.946 237.446C101.863 237.517 101.804 237.599 101.722 237.67V219.997C102.453 219.997 103.195 220.021 103.915 220.08C108.501 220.421 114.207 220.858 117.543 225.232C119.677 228.038 120.291 231.692 120.361 234.699ZM105.423 165.187C109.149 160.306 113.747 157.594 117.437 156.108C114.03 164.349 115.457 172.732 116.73 177.283C116.636 177.283 116.553 177.283 116.459 177.283C111.979 177.283 105.966 177.978 99.741 180.725C100.012 176.516 101.25 170.645 105.412 165.175L105.423 165.187ZM93.3039 200.744C95.3435 200.744 97.0057 202.489 97.0057 204.647V232.093C92.7142 234.192 79.9812 239.45 59.7972 239.45H59.6913C40.4268 239.438 27.9766 234.628 23.19 232.376V221.801C24.4397 222.626 25.9725 223.31 27.8 223.534C31.6434 224.029 35.4515 222.39 38.1042 219.36C41.6057 225.114 47.8307 228.78 54.5508 228.78C54.7866 228.78 55.0107 228.78 55.2465 228.769C62.8391 228.486 69.4414 223.687 72.3417 216.613C77.9418 217.12 83.0585 216.236 87.3146 213.949C88.8237 213.135 96.2866 208.891 94.6832 205.059C93.905 203.22 92.5021 203.244 89.0948 203.326C88.2696 203.338 87.2437 203.362 85.9586 203.385C82.6457 203.432 79.6158 203.491 76.9159 203.562C76.8334 202.595 76.6921 201.664 76.5153 200.744H93.2803H93.3039ZM18.4859 247.526C16.6821 247.444 15.1847 246.948 14.0411 246.029C11.6832 244.131 11.2116 240.759 10.8225 236.208C10.1859 228.922 9.98548 221.341 10.2331 213.69L10.2685 212.687L9.57305 211.968C8.51198 210.872 5.05761 206.863 5.48205 201.346C5.94185 195.262 10.9643 189.874 16.6705 189.32C20.5965 188.943 23.7559 190.924 25.2768 192.126L28.4484 194.637L29.0731 190.641C30.1931 183.496 36.4181 178.143 42.6313 178.957C47.3354 179.57 51.3675 183.602 52.6761 188.99L53.3364 191.702L55.9065 190.593C57.6514 189.839 60.316 189.108 63.0512 189.874C67.1658 191.041 70.4199 195.286 71.7286 200.709C72.1294 202.36 72.3535 204.128 72.3535 205.944V208.361L74.7701 208.302C78.0005 208.219 81.7969 208.137 86.0648 208.078C86.7132 208.078 87.2909 208.054 87.8214 208.042C87.0315 208.632 86.1001 209.233 85.1216 209.764C80.724 212.122 75.0887 212.652 68.8165 211.284L68.109 214.55C65.9397 220.068 60.9054 223.805 55.0931 224.029C48.6677 224.289 42.7375 220.009 40.6743 213.654L38.6583 207.476L36.2413 213.513C34.8148 217.061 31.5963 219.266 28.4248 218.842C25.3359 218.453 23.5555 215.658 23.2254 215.104V215.01H18.5095V247.503L18.4859 247.526ZM81.6908 321.625H38.5048C30.0634 321.625 23.19 314.504 23.19 305.744V237.54C29.4032 240.146 41.8534 244.154 59.6913 244.178H59.7972C78.2953 244.178 91.0165 239.875 97.0057 237.281V255.661C95.5556 272.096 94.8953 283.508 97.0057 291.749V305.744C97.0057 314.504 90.1323 321.625 81.6908 321.625Z" fill="#252525"/>
<path d="M82.3634 303.751C81.0665 305.202 78.8501 306.109 76.5039 306.109C74.1577 306.109 71.941 305.202 70.6441 303.751V254.069H65.9282V303.751C64.6314 305.202 62.4149 306.109 60.0688 306.109C57.7226 306.109 55.5062 305.202 54.2093 303.751V254.069H48.7862V303.751C47.4893 305.202 45.2726 306.109 42.9264 306.109C40.5803 306.109 38.3638 305.202 37.067 303.751V249.919H32.3511V305.284L32.7638 305.885C34.8506 308.927 38.7411 310.825 42.9264 310.825C46.2158 310.825 49.3047 309.646 51.4858 307.677C53.6787 309.646 56.7676 310.825 60.0452 310.825C63.1577 310.825 66.0936 309.776 68.2629 307.996C70.4204 309.776 73.3678 310.825 76.4803 310.825C80.6657 310.825 84.5561 308.927 86.6429 305.885L87.0557 305.284V249.919H82.3398V303.751H82.3634Z" fill="#252525"/>
<path d="M360.118 93.3161C359.894 93.0332 359.67 92.7502 359.434 92.4673L354.883 96.2164C379.535 126.21 393.105 163.854 393.105 202.242C393.105 294.933 317.698 370.328 225.019 370.328C200.603 370.328 175.254 362.842 175.03 362.771C157.322 357.241 142.349 349.272 129.946 340.7C127.176 338.779 124.535 336.833 122.024 334.888C112.851 327.767 105.377 320.516 99.576 314.126L95.2139 318.088C96.0391 318.995 96.8997 319.915 97.784 320.858C113.063 336.987 137.963 357.359 173.309 368.406C174.37 368.725 199.718 376.223 225.019 376.223C320.952 376.223 399 298.175 399 202.242C399 162.852 385.194 124.229 360.118 93.3161Z" fill="#252525"/>
<path d="M57.8411 186.408C57.9 185.901 57.9825 185.394 58.0414 184.887C59.0082 177.012 60.5055 169.289 62.4862 161.767C64.3018 154.906 66.5066 148.197 69.1121 141.69C79.2042 116.471 95.0614 94.1415 115.08 76.4333C116.365 75.3015 117.662 74.1697 118.983 73.0732C137.198 57.9116 158.632 46.4874 182.176 40.0148C183.921 39.5314 185.665 39.0598 187.434 38.6472L186.055 32.9174C185.972 32.9409 185.878 32.9645 185.795 32.9881C116.2 49.7767 63.4883 108.16 52.8068 179.429C52.4885 181.527 52.2056 183.637 51.958 185.76L57.8175 186.42L57.8411 186.408Z" fill="#252525"/>
</svg>
